<?xml version='1.0' encoding='utf-8'?>
<svg xmlns="http://www.w3.org/2000/svg" width="136.29mm" height="174.7mm" clip-rule="evenodd" fill-rule="evenodd" image-rendering="optimizeQuality" shape-rendering="geometricPrecision" text-rendering="geometricPrecision" version="1.1" viewBox="0 0 123625 158464">
 <defs>
  <style type="text/css">
   
    .str1 {stroke:black;stroke-width:907.047}
    .str0 {stroke:#373435;stroke-width:907.047}
    .fil257 {fill:none}
    .fil170 {fill:#0088EB}
    .fil169 {fill:#018BE7}
    .fil171 {fill:#0285EC}
    .fil168 {fill:#028EE2}
    .fil167 {fill:#0391DE}
    .fil166 {fill:#0393D9}
    .fil172 {fill:#0482EC}
    .fil165 {fill:#0496D4}
    .fil164 {fill:#0599D0}
    .fil163 {fill:#069CCB}
    .fil173 {fill:#077EED}
    .fil162 {fill:#079EC6}
    .fil161 {fill:#08A1C2}
    .fil174 {fill:#097BED}
    .fil160 {fill:#09A4BD}
    .fil159 {fill:#0AA7B8}
    .fil175 {fill:#0B78EE}
    .fil158 {fill:#0BA9B4}
    .fil157 {fill:#0CACAF}
    .fil156 {fill:#0CAFAA}
    .fil176 {fill:#0D74EE}
    .fil155 {fill:#0DB1A5}
    .fil154 {fill:#0EB4A1}
    .fil177 {fill:#0F71EF}
    .fil153 {fill:#0FB79C}
    .fil152 {fill:#10BA97}
    .fil178 {fill:#116EEF}
    .fil151 {fill:#11BC93}
    .fil150 {fill:#12BF8E}
    .fil179 {fill:#136AEF}
    .fil149 {fill:#13C289}
    .fil148 {fill:#14C485}
    .fil180 {fill:#1567F0}
    .fil147 {fill:#15C780}
    .fil146 {fill:#15CA7B}
    .fil145 {fill:#16CD77}
    .fil181 {fill:#1764F0}
    .fil144 {fill:#17CF72}
    .fil143 {fill:#18D26D}
    .fil182 {fill:#1960F1}
    .fil142 {fill:#19D569}
    .fil141 {fill:#1AD864}
    .fil183 {fill:#1B5DF1}
    .fil140 {fill:#1BDA5F}
    .fil139 {fill:#1CDD5B}
    .fil184 {fill:#1D59F2}
    .fil138 {fill:#1DE056}
    .fil137 {fill:#1EE251}
    .fil136 {fill:#1EE54C}
    .fil135 {fill:#1FE848}
    .fil185 {fill:#2056F2}
    .fil134 {fill:#20EB43}
    .fil133 {fill:#21ED3E}
    .fil186 {fill:#2253F3}
    .fil132 {fill:#22F03A}
    .fil131 {fill:#23F335}
    .fil187 {fill:#244FF3}
    .fil130 {fill:#24F530}
    .fil129 {fill:#25F82C}
    .fil188 {fill:#264CF4}
    .fil128 {fill:#26FB27}
    .fil127 {fill:#27FE22}
    .fil189 {fill:#2849F4}
    .fil190 {fill:#2A45F5}
    .fil126 {fill:#2AFF20}
    .fil191 {fill:#2C42F5}
    .fil192 {fill:#2E3FF6}
    .fil125 {fill:#2FFE1F}
    .fil193 {fill:#303BF6}
    .fil194 {fill:#3238F7}
    .fil195 {fill:#3435F7}
    .fil124 {fill:#34FD1E}
    .fil196 {fill:#3631F8}
    .fil197 {fill:#392EF8}
    .fil123 {fill:#3AFD1D}
    .fil198 {fill:#3B2AF9}
    .fil199 {fill:#3D27F9}
    .fil200 {fill:#3F24FA}
    .fil122 {fill:#3FFC1C}
    .fil201 {fill:#4120FA}
    .fil202 {fill:#431DFB}
    .fil121 {fill:#44FB1C}
    .fil203 {fill:#451AFB}
    .fil204 {fill:#4716FC}
    .fil205 {fill:#4913FC}
    .fil120 {fill:#49FB1B}
    .fil206 {fill:#4B10FD}
    .fil207 {fill:#4D0CFD}
    .fil208 {fill:#4F09FE}
    .fil119 {fill:#4FFA1A}
    .fil209 {fill:#5206FE}
    .fil210 {fill:#5402FF}
    .fil118 {fill:#54FA19}
    .fil211 {fill:#5600FF}
    .fil212 {fill:#5800FF}
    .fil213 {fill:#5900FF}
    .fil117 {fill:#59F919}
    .fil214 {fill:#5B00FF}
    .fil215 {fill:#5D00FF}
    .fil216 {fill:#5F00FF}
    .fil116 {fill:#5FF818}
    .fil217 {fill:#6100FF}
    .fil218 {fill:#6300FF}
    .fil115 {fill:#64F817}
    .fil219 {fill:#6500FF}
    .fil220 {fill:#6600FF}
    .fil221 {fill:#6800FF}
    .fil114 {fill:#69F716}
    .fil222 {fill:#6A00FF}
    .fil223 {fill:#6C00FF}
    .fil224 {fill:#6E00FF}
    .fil113 {fill:#6EF615}
    .fil225 {fill:#7000FF}
    .fil226 {fill:#7200FF}
    .fil227 {fill:#7400FF}
    .fil112 {fill:#74F615}
    .fil228 {fill:#7500FF}
    .fil229 {fill:#7700FF}
    .fil230 {fill:#7900FF}
    .fil111 {fill:#79F514}
    .fil231 {fill:#7B00FF}
    .fil232 {fill:#7D00FF}
    .fil110 {fill:#7EF413}
    .fil233 {fill:#7F00FF}
    .fil234 {fill:#8100FF}
    .fil235 {fill:#8200FF}
    .fil236 {fill:#8400FF}
    .fil109 {fill:#84F412}
    .fil237 {fill:#8600FF}
    .fil238 {fill:#8800FF}
    .fil108 {fill:#89F311}
    .fil239 {fill:#8A00FF}
    .fil240 {fill:#8C00FF}
    .fil241 {fill:#8E00FF}
    .fil107 {fill:#8EF311}
    .fil242 {fill:#9000FF}
    .fil243 {fill:#9100FF}
    .fil244 {fill:#9300FF}
    .fil106 {fill:#94F210}
    .fil245 {fill:#9500FF}
    .fil246 {fill:#9700FF}
    .fil247 {fill:#9900FF}
    .fil105 {fill:#99F10F}
    .fil248 {fill:#9B00FF}
    .fil249 {fill:#9D00FF}
    .fil104 {fill:#9EF10E}
    .fil250 {fill:#9F00FF}
    .fil251 {fill:#A000FF}
    .fil252 {fill:#A200FF}
    .fil103 {fill:#A3F00E}
    .fil253 {fill:#A400FF}
    .fil295 {fill:#A4A4A3}
    .fil254 {fill:#A600FF}
    .fil310 {fill:#A6A5A3}
    .fil269 {fill:#A6A6A3}
    .fil294 {fill:#A8A7A4}
    .fil268 {fill:#A9A9A4}
    .fil102 {fill:#A9EF0D}
    .fil315 {fill:#ABAAA4}
    .fil293 {fill:#ABABA4}
    .fil267 {fill:#ADACA4}
    .fil101 {fill:#AEEF0C}
    .fil292 {fill:#AFAEA5}
    .fil266 {fill:#B1B0A5}
    .fil291 {fill:#B2B1A5}
    .fil100 {fill:#B3EE0B}
    .fil265 {fill:#B4B3A5}
    .fil312 {fill:#B6B4A5}
    .fil290 {fill:#B6B5A5}
    .fil264 {fill:#B8B6A6}
    .fil99 {fill:#B9ED0A}
    .fil289 {fill:#BAB8A6}
    .fil309 {fill:#BBB9A6}
    .fil263 {fill:#BBBAA6}
    .fil288 {fill:#BDBBA6}
    .fil98 {fill:#BEED0A}
    .fil262 {fill:#BFBDA7}
    .fil311 {fill:#C1BEA7}
    .fil287 {fill:#C1BFA7}
    .fil261 {fill:#C3C0A7}
    .fil97 {fill:#C3EC09}
    .fil286 {fill:#C4C2A7}
    .fil313 {fill:#C6C3A8}
    .fil260 {fill:#C6C4A8}
    .fil285 {fill:#C8C5A8}
    .fil96 {fill:#C8EC08}
    .fil259 {fill:#CAC7A8}
    .fil314 {fill:#CCC8A8}
    .fil284 {fill:#CCC9A8}
    .fil258 {fill:#CDCAA9}
    .fil95 {fill:#CEEB07}
    .fil283 {fill:#CFCCA9}
    .fil270 {fill:#D2CEA9}
    .fil94 {fill:#D3EA07}
    .fil296 {fill:#D4D0A9}
    .fil271 {fill:#D6D2AA}
    .fil297 {fill:#D7D3AA}
    .fil93 {fill:#D8EA06}
    .fil272 {fill:#D9D5AA}
    .fil298 {fill:#DBD7AA}
    .fil273 {fill:#DDD8AB}
    .fil92 {fill:#DEE905}
    .fil299 {fill:#DFDAAB}
    .fil274 {fill:#E0DCAB}
    .fil300 {fill:#E2DDAB}
    .fil91 {fill:#E3E804}
    .fil275 {fill:#E4DFAB}
    .fil301 {fill:#E6E1AC}
    .fil276 {fill:#E8E2AC}
    .fil90 {fill:#E8E803}
    .fil302 {fill:#E9E4AC}
    .fil277 {fill:#EBE6AC}
    .fil303 {fill:#EDE7AD}
    .fil89 {fill:#EEE703}
    .fil278 {fill:#EFE9AD}
    .fil304 {fill:#F1EBAD}
    .fil279 {fill:#F2ECAD}
    .fil88 {fill:#F3E602}
    .fil305 {fill:#F4EEAE}
    .fil280 {fill:#F6F0AE}
    .fil87 {fill:#F8E601}
    .fil306 {fill:#F8F1AE}
    .fil281 {fill:#FAF3AE}
    .fil307 {fill:#FBF5AF}
    .fil86 {fill:#FDE500}
    .fil282 {fill:#FDF6AF}
    .fil256 {fill:#FEFEFE}
    .fil255 {fill:red}
    .fil0 {fill:#FF0300}
    .fil1 {fill:#FF0500}
    .fil2 {fill:#FF0800}
    .fil3 {fill:#FF0A00}
    .fil4 {fill:#FF0D00}
    .fil5 {fill:#FF1000}
    .fil6 {fill:#FF1200}
    .fil7 {fill:#FF1500}
    .fil8 {fill:#FF1700}
    .fil9 {fill:#FF1A00}
    .fil10 {fill:#FF1D00}
    .fil11 {fill:#FF1F00}
    .fil12 {fill:#FF2200}
    .fil13 {fill:#FF2400}
    .fil14 {fill:#FF2700}
    .fil15 {fill:#FF2900}
    .fil16 {fill:#FF2C00}
    .fil17 {fill:#FF2F00}
    .fil18 {fill:#FF3100}
    .fil19 {fill:#FF3400}
    .fil20 {fill:#FF3600}
    .fil21 {fill:#FF3900}
    .fil22 {fill:#FF3C00}
    .fil23 {fill:#FF3E00}
    .fil24 {fill:#FF4100}
    .fil25 {fill:#FF4300}
    .fil26 {fill:#FF4600}
    .fil27 {fill:#FF4900}
    .fil28 {fill:#FF4B00}
    .fil29 {fill:#FF4E00}
    .fil30 {fill:#FF5000}
    .fil31 {fill:#FF5300}
    .fil32 {fill:#FF5600}
    .fil33 {fill:#FF5800}
    .fil34 {fill:#FF5B00}
    .fil35 {fill:#FF5D00}
    .fil36 {fill:#FF6000}
    .fil37 {fill:#FF6300}
    .fil38 {fill:#FF6500}
    .fil39 {fill:#FF6800}
    .fil40 {fill:#FF6A00}
    .fil41 {fill:#FF6D00}
    .fil42 {fill:#FF6F00}
    .fil43 {fill:#FF7200}
    .fil44 {fill:#FF7500}
    .fil45 {fill:#FF7700}
    .fil46 {fill:#FF7A00}
    .fil47 {fill:#FF7D00}
    .fil48 {fill:#FF7F00}
    .fil49 {fill:#FF8200}
    .fil50 {fill:#FF8500}
    .fil51 {fill:#FF8700}
    .fil52 {fill:#FF8A00}
    .fil53 {fill:#FF8D00}
    .fil54 {fill:#FF9000}
    .fil55 {fill:#FF9200}
    .fil56 {fill:#FF9500}
    .fil57 {fill:#FF9800}
    .fil58 {fill:#FF9A00}
    .fil59 {fill:#FF9D00}
    .fil60 {fill:#FFA000}
    .fil61 {fill:#FFA200}
    .fil62 {fill:orange}
    .fil63 {fill:#FFA800}
    .fil64 {fill:#FFAA00}
    .fil65 {fill:#FFAD00}
    .fil66 {fill:#FFB000}
    .fil67 {fill:#FFB300}
    .fil68 {fill:#FFB500}
    .fil69 {fill:#FFB800}
    .fil70 {fill:#FFBB00}
    .fil71 {fill:#FFBD00}
    .fil72 {fill:#FFC000}
    .fil73 {fill:#FFC300}
    .fil74 {fill:#FFC500}
    .fil75 {fill:#FFC800}
    .fil76 {fill:#FFCB00}
    .fil77 {fill:#FFCE00}
    .fil78 {fill:#FFD000}
    .fil79 {fill:#FFD300}
    .fil80 {fill:#FFD600}
    .fil81 {fill:#FFD800}
    .fil82 {fill:#FFDB00}
    .fil83 {fill:#FFDE00}
    .fil84 {fill:#FFE000}
    .fil85 {fill:#FFE300}
    .fil308 {fill:#FFF8AF}
   
  </style>
     <clipPath id="a">
      <path d="m77739 4105c11001 3729 16610 12933 21336 22631 3841 7893 4755 12978 10559 19725 2658 3093 7346 8200 10454 12693 681 989 1243 2022 1692 3101 2157 5174 1655 11173-471 16370-68 157-60 202-60 37 0-5721-26637-10356-59490-10356-31887 0-57903 4366-59423 9847-127 450-60 390-255-120-1932-5062-2306-10798-239-15778 449-1079 1011-2112 1692-3100 3108-4494 7796-9601 10454-12694 5804-6747 6725-11832 10567-19725 4718-9698 10327-18901 21328-22631 1145-389 2209-734 3167-1101 8440-3220 16693-3474 24706-292 1175 465 2508 892 3983 1393z"/>
     </clipPath>
 </defs>
    <g clip-path="url(#a)">
     <path class="fil0" d="m61812 39610l73935 227-17 1367-73918-1594z"/>
     <path class="fil1" d="m61812 39610l73921 1366-28 1138-73893-2504z"/>
     <path class="fil2" d="m61812 39610l73898 2276-42 1138-73856-3414z"/>
     <path class="fil3" d="m61812 39610l73865 3187-56 1137-73809-4324z"/>
     <path class="fil4" d="m61812 39610l73820 4096-70 1137-73750-5233z"/>
     <path class="fil5" d="m61812 39610l73764 5006-84 1135-73680-6141z"/>
     <path class="fil6" d="m61812 39610l73697 5914-99 1134-73598-7048z"/>
     <path class="fil7" d="m61812 39610l73618 6821-112 1133-73506-7954z"/>
     <path class="fil8" d="m61812 39610l73528 7728-126 1131-73402-8859z"/>
     <path class="fil9" d="m61812 39610l73428 8633-140 1130-73288-9763z"/>
     <path class="fil10" d="m61812 39610l73316 9537-154 1128-73162-10665z"/>
     <path class="fil11" d="m61812 39610l73193 10439-168 1127-73025-11566z"/>
     <path class="fil12" d="m61812 39610l73059 11340-182 1124-72877-12464z"/>
     <path class="fil13" d="m61812 39610l72913 12240-195 1121-72718-13361z"/>
     <path class="fil14" d="m61812 39610l72757 13137-209 1119-72548-14256z"/>
     <path class="fil15" d="m61812 39610l72590 14032-223 1117-72367-15149z"/>
     <path class="fil16" d="m61812 39610l72411 14925-237 1114-72174-16039z"/>
     <path class="fil17" d="m61812 39610l72222 15816-251 1111-71971-16927z"/>
     <path class="fil18" d="m61812 39610l72021 16705-264 1108-71757-17813z"/>
     <path class="fil19" d="m61812 39610l71810 17591-278 1104-71532-18695z"/>
     <path class="fil20" d="m61812 39610l71588 18474-291 1101-71297-19575z"/>
     <path class="fil21" d="m61812 39610l71355 19355-305 1097-71050-20452z"/>
     <path class="fil22" d="m61812 39610l71111 20232-318 1094-70793-21326z"/>
     <path class="fil23" d="m61812 39610l70856 21107-331 1089-70525-22196z"/>
     <path class="fil24" d="m61812 39610l70591 21978-345 1085-70246-23063z"/>
     <path class="fil25" d="m61812 39610l70315 22846-359 1081-69956-23927z"/>
     <path class="fil26" d="m61812 39610l70028 23711-372 1076-69656-24787z"/>
     <path class="fil27" d="m61812 39610l69731 24572-385 1071-69346-25643z"/>
     <path class="fil28" d="m61812 39610l69423 25429-399 1067-69024-26496z"/>
     <path class="fil29" d="m61812 39610l69104 26282-411 1062-68693-27344z"/>
     <path class="fil30" d="m61812 39610l68775 27132-424 1056-68351-28188z"/>
     <path class="fil31" d="m61812 39610l68436 27977-438 1051-67998-29028z"/>
     <path class="fil32" d="m61812 39610l68086 28818-451 1046-67635-29864z"/>
     <path class="fil33" d="m61812 39610l67726 29654-463 1040-67263-30694z"/>
     <path class="fil34" d="m61812 39610l67355 30486-476 1035-66879-31521z"/>
     <path class="fil35" d="m61812 39610l66974 31314-488 1028-66486-32342z"/>
     <path class="fil36" d="m61812 39610l66583 32137-501 1022-66082-33159z"/>
     <path class="fil37" d="m61812 39610l66183 32954-514 1017-65669-33971z"/>
     <path class="fil38" d="m61812 39610l65772 33767-527 1010-65245-34777z"/>
     <path class="fil39" d="m61812 39610l65351 34575-539 1003-64812-35578z"/>
     <path class="fil40" d="m61812 39610l64920 35378-551 996-64369-36374z"/>
     <path class="fil41" d="m61812 39610l64479 36175-563 989-63916-37164z"/>
     <path class="fil42" d="m61812 39610l64028 36966-575 983-63453-37949z"/>
     <path class="fil43" d="m61812 39610l63568 37752-587 976-62981-38728z"/>
     <path class="fil44" d="m61812 39610l63098 38533-599 968-62499-39501z"/>
     <path class="fil45" d="m61812 39610l62619 39307-612 961-62007-40268z"/>
     <path class="fil46" d="m61812 39610l62130 40075-623 953-61507-41028z"/>
     <path class="fil47" d="m61812 39610l61631 40838-635 945-60996-41783z"/>
     <path class="fil48" d="m61812 39610l61123 41594-646 937-60477-42531z"/>
     <path class="fil49" d="m61812 39610l60606 42344-658 929-59948-43273z"/>
     <path class="fil50" d="m61812 39610l60080 43087-669 921-59411-44008z"/>
     <path class="fil51" d="m61812 39610l59545 43824-681 913-58864-44737z"/>
     <path class="fil52" d="m61812 39610l59000 44554-692 905-58308-45459z"/>
     <path class="fil53" d="m61812 39610l58447 45278-703 896-57744-46174z"/>
     <path class="fil54" d="m61812 39610l57885 45994-714 887-57171-46881z"/>
     <path class="fil55" d="m61812 39610l57314 46704-725 878-56589-47582z"/>
     <path class="fil56" d="m61812 39610l56734 47407-736 869-55998-48276z"/>
     <path class="fil57" d="m61812 39610l56145 48102-746 860-55399-48962z"/>
     <path class="fil58" d="m61812 39610l55549 48790-757 851-54792-49641z"/>
     <path class="fil59" d="m61812 39610l54943 49471-767 841-54176-50312z"/>
     <path class="fil60" d="m61812 39610l54330 50144-778 832-53552-50976z"/>
     <path class="fil61" d="m61812 39610l53708 50809-788 822-52920-51631z"/>
     <path class="fil62" d="m61812 39610l53078 51467-798 813-52280-52280z"/>
     <path class="fil63" d="m61812 39610l52440 52117-808 803-51632-52920z"/>
     <path class="fil64" d="m61812 39610l51794 52759-818 793-50976-53552z"/>
     <path class="fil65" d="m61812 39610l51140 53393-827 783-50313-54176z"/>
     <path class="fil66" d="m61812 39610l50478 54019-837 772-49641-54791z"/>
     <path class="fil67" d="m61812 39610l49809 54637-846 762-48963-55399z"/>
     <path class="fil68" d="m61812 39610l49132 55246-856 752-48276-55998z"/>
     <path class="fil69" d="m61812 39610l48448 55848-865 740-47583-56588z"/>
     <path class="fil70" d="m61812 39610l47756 56440-874 730-46882-57170z"/>
     <path class="fil71" d="m61812 39610l47057 57024-883 719-46174-57743z"/>
     <path class="fil72" d="m61812 39610l46351 57600-892 708-45459-58308z"/>
     <path class="fil73" d="m61812 39610l45638 58166-900 697-44738-58863z"/>
     <path class="fil74" d="m61812 39610l44918 58724-909 686-44009-59410z"/>
     <path class="fil75" d="m61812 39610l44191 59273-917 675-43274-59948z"/>
     <path class="fil76" d="m61812 39610l43457 59813-925 663-42532-60476z"/>
     <path class="fil77" d="m61812 39610l42717 60344-933 652-41784-60996z"/>
     <path class="fil78" d="m61812 39610l41970 60865-941 641-41029-61506z"/>
     <path class="fil79" d="m61812 39610l41217 61378-949 629-40268-62007z"/>
     <path class="fil80" d="m61812 39610l40458 61881-957 617-39501-62498z"/>
     <path class="fil81" d="m61812 39610l39693 62375-965 605-38728-62980z"/>
     <path class="fil82" d="m61812 39610l38921 62859-972 593-37949-63452z"/>
     <path class="fil83" d="m61812 39610l38144 63334-979 581-37165-63915z"/>
     <path class="fil84" d="m61812 39610l37361 63799-986 569-36375-64368z"/>
     <path class="fil85" d="m61812 39610l36572 64254-993 557-35579-64811z"/>
     <path class="fil86" d="m61812 39610l35777 64700-999 545-34778-65245z"/>
     <path class="fil87" d="m61812 39610l34978 65136-1007 532-33971-65668z"/>
     <path class="fil88" d="m61812 39610l34173 65562-1013 520-33160-66082z"/>
     <path class="fil89" d="m61812 39610l33362 65978-1019 507-32343-66485z"/>
     <path class="fil90" d="m61812 39610l32547 66384-1026 495-31521-66879z"/>
     <path class="fil91" d="m61812 39610l31727 66780-1032 482-30695-67262z"/>
     <path class="fil92" d="m61812 39610l30901 67165-1037 470-29864-67635z"/>
     <path class="fil93" d="m61812 39610l30072 67541-1043 457-29029-67998z"/>
     <path class="fil94" d="m61812 39610l29237 67906-1048 444-28189-68350z"/>
     <path class="fil95" d="m61812 39610l28398 68261-1053 431-27345-68692z"/>
     <path class="fil96" d="m61812 39610l27555 68606-1059 418-26496-69024z"/>
     <path class="fil97" d="m61812 39610l26708 68940-1064 405-25644-69345z"/>
     <path class="fil98" d="m61812 39610l25857 69264-1069 392-24788-69656z"/>
     <path class="fil99" d="m61812 39610l25001 69577-1073 379-23928-69956z"/>
     <path class="fil100" d="m61812 39610l24142 69880-1078 365-23064-70245z"/>
     <path class="fil101" d="m61812 39610l23280 70172-1083 352-22197-70524z"/>
     <path class="fil102" d="m61812 39610l22413 70454-1087 338-21326-70792z"/>
     <path class="fil103" d="m61812 39610l21544 70724-1092 326-20452-71050z"/>
     <path class="fil104" d="m61812 39610l20671 70985-1095 311-19576-71296z"/>
     <path class="fil105" d="m61812 39610l19795 71234-1099 298-18696-71532z"/>
     <path class="fil106" d="m61812 39610l18916 71472-1103 285-17813-71757z"/>
     <path class="fil107" d="m61812 39610l18034 71700-1106 271-16928-71971z"/>
     <path class="fil108" d="m61812 39610l17149 71917-1109 257-16040-72174z"/>
     <path class="fil109" d="m61812 39610l16262 72122-1113 244-15149-72366z"/>
     <path class="fil110" d="m61812 39610l15372 72317-1115 230-14257-72547z"/>
     <path class="fil111" d="m61812 39610l14480 72501-1118 216-13362-72717z"/>
     <path class="fil112" d="m61812 39610l13585 72674-1120 202-12465-72876z"/>
     <path class="fil113" d="m61812 39610l12689 72836-1123 188-11566-73024z"/>
     <path class="fil114" d="m61812 39610l11791 72987-1125 174-10666-73161z"/>
     <path class="fil115" d="m61812 39610l10891 73126-1127 161-9764-73287z"/>
     <path class="fil116" d="m61812 39610l9989 73255-1129 147-8860-73402z"/>
     <path class="fil117" d="m61812 39610l9086 73372-1131 133-7955-73505z"/>
     <path class="fil118" d="m61812 39610l8181 73479-1132 119-7049-73598z"/>
     <path class="fil119" d="m61812 39610l7275 73574-1133 105-6142-73679z"/>
     <path class="fil120" d="m61812 39610l6368 73658-1135 91-5233-73749z"/>
     <path class="fil121" d="m61812 39610l5460 73731-1135 77-4325-73808z"/>
     <path class="fil122" d="m61812 39610l4552 73793-1137 63-3415-73856z"/>
     <path class="fil123" d="m61812 39610l3642 73843-1137 49-2505-73892z"/>
     <path class="fil124" d="m61812 39610l2732 73882-1138 35-1594-73917z"/>
     <path class="fil125" d="m61812 39610l1822 73910-1139 21-683-73931z"/>
     <path class="fil126" d="m61812 39610l911 73927-1138 7 227-73934z"/>
     <path class="fil127" d="m61812 39610v73933l-1138-7 1138-73926z"/>
     <path class="fil128" d="m61812 39610l-911 73927-1138-21 2049-73906z"/>
     <path class="fil129" d="m61812 39610l-1821 73910-1138-35 2959-73875z"/>
     <path class="fil130" d="m61812 39610l-2732 73882-1137-49 3869-73833z"/>
     <path class="fil131" d="m61812 39610l-3642 73843-1136-63 4778-73780z"/>
     <path class="fil132" d="m61812 39610l-4551 73793-1136-77 5687-73716z"/>
     <path class="fil133" d="m61812 39610l-5460 73731-1135-91 6595-73640z"/>
     <path class="fil134" d="m61812 39610l-6368 73658-1133-105 7501-73553z"/>
     <path class="fil135" d="m61812 39610l-7275 73574-1132-119 8407-73455z"/>
     <path class="fil136" d="m61812 39610l-8181 73479-1130-133 9311-73346z"/>
     <path class="fil137" d="m61812 39610l-9085 73372-1129-146 10214-73226z"/>
     <path class="fil138" d="m61812 39610l-9988 73255-1128-161 11116-73094z"/>
     <path class="fil139" d="m61812 39610l-10890 73126-1125-174 12015-72952z"/>
     <path class="fil140" d="m61812 39610l-11790 72987-1123-189 12913-72798z"/>
     <path class="fil141" d="m61812 39610l-12689 72836-1120-202 13809-72634z"/>
     <path class="fil142" d="m61812 39610l-13585 72674-1118-216 14703-72458z"/>
     <path class="fil143" d="m61812 39610l-14479 72501-1115-230 15594-72271z"/>
     <path class="fil144" d="m61812 39610l-15371 72317-1113-243 16484-72074z"/>
     <path class="fil145" d="m61812 39610l-16261 72122-1109-257 17370-71865z"/>
     <path class="fil146" d="m61812 39610l-17148 71917-1106-271 18254-71646z"/>
     <path class="fil147" d="m61812 39610l-18033 71700-1102-285 19135-71415z"/>
     <path class="fil148" d="m61812 39610l-18915 71472-1099-298 20014-71174z"/>
     <path class="fil149" d="m61812 39610l-19794 71234-1095-312 20889-70922z"/>
     <path class="fil150" d="m61812 39610l-20670 70985-1091-326 21761-70659z"/>
     <path class="fil151" d="m61812 39610l-21543 70724-1087-338 22630-70386z"/>
     <path class="fil152" d="m61812 39610l-22413 70454-1083-352 23496-70102z"/>
     <path class="fil153" d="m61812 39610l-23279 70172-1078-365 24357-69807z"/>
     <path class="fil154" d="m61812 39610l-24142 69880-1074-378 25216-69502z"/>
     <path class="fil155" d="m61812 39610l-25001 69577-1069-391 26070-69186z"/>
     <path class="fil156" d="m61812 39610l-25856 69264-1064-405 26920-68859z"/>
     <path class="fil157" d="m61812 39610l-26707 68940-1060-418 27767-68522z"/>
     <path class="fil158" d="m61812 39610l-27555 68606-1054-431 28609-68175z"/>
     <path class="fil159" d="m61812 39610l-28398 68261-1048-443 29446-67818z"/>
     <path class="fil160" d="m61812 39610l-29237 67906-1043-456 30280-67450z"/>
     <path class="fil161" d="m61812 39610l-30071 67541-1037-469 31108-67072z"/>
     <path class="fil162" d="m61812 39610l-30901 67165-1031-482 31932-66683z"/>
     <path class="fil163" d="m61812 39610l-31726 66780-1025-495 32751-66285z"/>
     <path class="fil164" d="m61812 39610l-32546 66384-1019-508 33565-65876z"/>
     <path class="fil165" d="m61812 39610l-33362 65978-1012-520 34374-65458z"/>
     <path class="fil166" d="m61812 39610l-34172 65562-1006-533 35178-65029z"/>
     <path class="fil167" d="m61812 39610l-34977 65136-1e3 -545 35977-64591z"/>
     <path class="fil168" d="m61812 39610l-35777 64700-993-557 36770-64143z"/>
     <path class="fil169" d="m61812 39610l-36571 64254-986-569 37557-63685z"/>
     <path class="fil170" d="m61812 39610l-37360 63799-979-582 38339-63217z"/>
     <path class="fil171" d="m61812 39610l-38143 63334-972-594 39115-62740z"/>
     <path class="fil172" d="m61812 39610l-38920 62859-965-605 39885-62254z"/>
     <path class="fil173" d="m61812 39610l-39692 62375-957-618 40649-61757z"/>
     <path class="fil174" d="m61812 39610l-40457 61881-949-629 41406-61252z"/>
     <path class="fil175" d="m61812 39610l-41217 61378-941-641 42158-60737z"/>
     <path class="fil176" d="m61812 39610l-41970 60865-933-652 42903-60213z"/>
     <path class="fil177" d="m61812 39610l-42716 60344-926-664 43642-59680z"/>
     <path class="fil178" d="m61812 39610l-43457 59813-916-675 44373-59138z"/>
     <path class="fil179" d="m61812 39610l-44190 59273-909-686 45099-58587z"/>
     <path class="fil180" d="m61812 39610l-44917 58724-900-697 45817-58027z"/>
     <path class="fil181" d="m61812 39610l-45637 58166-891-708 46528-57458z"/>
     <path class="fil182" d="m61812 39610l-46350 57600-883-720 47233-56880z"/>
     <path class="fil183" d="m61812 39610l-47056 57024-874-730 47930-56294z"/>
     <path class="fil184" d="m61812 39610l-47755 56440-865-741 48620-55699z"/>
     <path class="fil185" d="m61812 39610l-48447 55848-855-752 49302-55096z"/>
     <path class="fil186" d="m61812 39610l-49131 55246-846-761 49977-54485z"/>
     <path class="fil187" d="m61812 39610l-49808 54637-837-772 50645-53865z"/>
     <path class="fil188" d="m61812 39610l-50477 54019-828-782 51305-53237z"/>
     <path class="fil189" d="m61812 39610l-51139 53393-818-792 51957-52601z"/>
     <path class="fil190" d="m61812 39610l-51793 52759-808-803 52601-51956z"/>
     <path class="fil191" d="m61812 39610l-52439 52117-798-812 53237-51305z"/>
     <path class="fil192" d="m61812 39610l-53077 51467-788-822 53865-50645z"/>
     <path class="fil193" d="m61812 39610l-53707 50809-778-832 54485-49977z"/>
     <path class="fil194" d="m61812 39610l-54329 50144-767-842 55096-49302z"/>
     <path class="fil195" d="m61812 39610l-54943 49471-756-851 55699-48620z"/>
     <path class="fil196" d="m61812 39610l-55548 48790-746-860 56294-47930z"/>
     <path class="fil197" d="m61812 39610l-56145 48102-735-869 56880-47233z"/>
     <path class="fil198" d="m61812 39610l-56733 47407-725-879 57458-46528z"/>
     <path class="fil199" d="m61812 39610l-57313 46704-714-887 58027-45817z"/>
     <path class="fil200" d="m61812 39610l-57884 45994-703-895 58587-45099z"/>
     <path class="fil201" d="m61812 39610l-58446 45278-692-905 59138-44373z"/>
     <path class="fil202" d="m61812 39610l-59000 44554-680-912 59680-43642z"/>
     <path class="fil203" d="m61812 39610l-59544 43824-669-921 60213-42903z"/>
     <path class="fil204" d="m61812 39610l-60079 43087-658-929 60737-42158z"/>
     <path class="fil205" d="m61812 39610l-60606 42344-646-938 61252-41406z"/>
     <path class="fil206" d="m61812 39610l-61123 41594-634-945 61757-40649z"/>
     <path class="fil207" d="m61812 39610l-61630 40838-624-953 62254-39885z"/>
     <path class="fil208" d="m61812 39610l-62129 40075-611-960 62740-39115z"/>
     <path class="fil209" d="m61812 39610l-62618 39307-599-968 63217-38339z"/>
     <path class="fil210" d="m61812 39610l-63097 38533-588-976 63685-37557z"/>
     <path class="fil211" d="m61812 39610l-63567 37752-576-982 64143-36770z"/>
     <path class="fil212" d="m61812 39610l-64028 36966-563-989 64591-35977z"/>
     <path class="fil213" d="m61812 39610l-64478 36175-551-997 65029-35178z"/>
     <path class="fil214" d="m61812 39610l-64919 35378-539-1004 65458-34374z"/>
     <path class="fil215" d="m61812 39610l-65350 34575-526-1010 65876-33565z"/>
     <path class="fil216" d="m61812 39610l-65771 33767-514-1016 66285-32751z"/>
     <path class="fil217" d="m61812 39610l-66182 32954-501-1022 66683-31932z"/>
     <path class="fil218" d="m61812 39610l-66583 32137-489-1029 67072-31108z"/>
     <path class="fil219" d="m61812 39610l-66974 31314-476-1034 67450-30280z"/>
     <path class="fil220" d="m61812 39610l-67354 30486-464-1040 67818-29446z"/>
     <path class="fil221" d="m61812 39610l-67725 29654-450-1045 68175-28609z"/>
     <path class="fil222" d="m61812 39610l-68085 28818-437-1051 68522-27767z"/>
     <path class="fil223" d="m61812 39610l-68435 27977-424-1057 68859-26920z"/>
     <path class="fil224" d="m61812 39610l-68774 27132-412-1062 69186-26070z"/>
     <path class="fil225" d="m61812 39610l-69103 26282-399-1066 69502-25216z"/>
     <path class="fil226" d="m61812 39610l-69422 25429-385-1072 69807-24357z"/>
     <path class="fil227" d="m61812 39610l-69730 24572-372-1076 70102-23496z"/>
     <path class="fil228" d="m61812 39610l-70027 23711-359-1081 70386-22630z"/>
     <path class="fil229" d="m61812 39610l-70314 22846-345-1085 70659-21761z"/>
     <path class="fil230" d="m61812 39610l-70590 21978-332-1089 70922-20889z"/>
     <path class="fil231" d="m61812 39610l-70856 21107-318-1093 71174-20014z"/>
     <path class="fil232" d="m61812 39610l-71111 20232-304-1097 71415-19135z"/>
     <path class="fil233" d="m61812 39610l-71354 19355-292-1101 71646-18254z"/>
     <path class="fil234" d="m61812 39610l-71587 18474-278-1104 71865-17370z"/>
     <path class="fil235" d="m61812 39610l-71810 17591-264-1108 72074-16483z"/>
     <path class="fil236" d="m61812 39610l-72021 16705-250-1111 72271-15594z"/>
     <path class="fil237" d="m61812 39610l-72221 15816-237-1113 72458-14703z"/>
     <path class="fil238" d="m61812 39610l-72411 14925-223-1116 72634-13809z"/>
     <path class="fil239" d="m61812 39610l-72589 14032-209-1119 72798-12913z"/>
     <path class="fil240" d="m61812 39610l-72756 13137-196-1122 72952-12015z"/>
     <path class="fil241" d="m61812 39610l-72913 12240-181-1124 73094-11116z"/>
     <path class="fil242" d="m61812 39610l-73058 11340-168-1126 73226-10214z"/>
     <path class="fil243" d="m61812 39610l-73192 10439-154-1128 73346-9311z"/>
     <path class="fil244" d="m61812 39610l-73315 9537-140-1130 73455-8407z"/>
     <path class="fil245" d="m61812 39610l-73427 8633-126-1132 73553-7501z"/>
     <path class="fil246" d="m61812 39610l-73528 7728-112-1133 73640-6595z"/>
     <path class="fil247" d="m61812 39610l-73617 6821-99-1134 73716-5687z"/>
     <path class="fil248" d="m61812 39610l-73696 5914-84-1136 73780-4778z"/>
     <path class="fil249" d="m61812 39610l-73763 5006-70-1137 73833-3869z"/>
     <path class="fil250" d="m61812 39610l-73819 4096-56-1137 73875-2959z"/>
     <path class="fil251" d="m61812 39610l-73864 3187-42-1138 73906-2049z"/>
     <path class="fil252" d="m61812 39610l-73898 2276-28-1138 73926-1138z"/>
     <path class="fil253" d="m61812 39610l-73920 1366-14-1139 73934-227z"/>
     <path class="fil254" d="m61812 39610l-73931 455v-1138l73931 683z"/>
     <path class="fil253" d="m61812 39610l-73931-456 14-1138 73917 1594z"/>
     <path class="fil252" d="m61812 39610l-73920-1367 28-1138 73892 2505z"/>
     <path class="fil251" d="m61812 39610l-73898-2277 42-1138 73856 3415z"/>
     <path class="fil250" d="m61812 39610l-73864-3187 56-1138 73808 4325z"/>
     <path class="fil249" d="m61812 39610l-73819-4097 70-1136 73749 5233z"/>
     <path class="fil248" d="m61812 39610l-73763-5006 84-1136 73679 6142z"/>
     <path class="fil247" d="m61812 39610l-73696-5915 98-1134 73598 7049z"/>
     <path class="fil246" d="m61812 39610l-73617-6822 112-1133 73505 7955z"/>
     <path class="fil245" d="m61812 39610l-73528-7728 126-1132 73402 8860z"/>
     <path class="fil244" d="m61812 39610l-73427-8634 140-1130 73287 9764z"/>
     <path class="fil243" d="m61812 39610l-73315-9538 154-1128 73161 10666z"/>
     <path class="fil242" d="m61812 39610l-73192-10440 168-1126 73024 11566z"/>
     <path class="fil241" d="m61812 39610l-73058-11341 182-1124 72876 12465z"/>
     <path class="fil240" d="m61812 39610l-72913-12240 196-1122 72717 13362z"/>
     <path class="fil239" d="m61812 39610l-72756-13138 209-1119 72547 14257z"/>
     <path class="fil238" d="m61812 39610l-72589-14033 223-1116 72366 15149z"/>
     <path class="fil237" d="m61812 39610l-72411-14926 237-1114 72174 16040z"/>
     <path class="fil236" d="m61812 39610l-72221-15817 250-1111 71971 16928z"/>
     <path class="fil235" d="m61812 39610l-72021-16706 264-1107 71757 17813z"/>
     <path class="fil234" d="m61812 39610l-71810-17592 278-1104 71532 18696z"/>
     <path class="fil233" d="m61812 39610l-71587-18475 291-1101 71296 19576z"/>
     <path class="fil232" d="m61812 39610l-71354-19355 304-1098 71050 20453z"/>
     <path class="fil231" d="m61812 39610l-71111-20233 319-1093 70792 21326z"/>
     <path class="fil230" d="m61812 39610l-70856-21108 332-1089 70524 22197z"/>
     <path class="fil229" d="m61812 39610l-70590-21979 345-1085 70245 23064z"/>
     <path class="fil228" d="m61812 39610l-70314-22847 358-1081 69956 23928z"/>
     <path class="fil227" d="m61812 39610l-70027-23711 371-1077 69656 24788z"/>
     <path class="fil226" d="m61812 39610l-69730-24572 385-1072 69345 25644z"/>
     <path class="fil225" d="m61812 39610l-69422-25430 398-1066 69024 26496z"/>
     <path class="fil224" d="m61812 39610l-69103-26283 411-1062 68692 27345z"/>
     <path class="fil223" d="m61812 39610l-68774-27132 424-1057 68350 28189z"/>
     <path class="fil222" d="m61812 39610l-68435-27977 437-1052 67998 29029z"/>
     <path class="fil221" d="m61812 39610l-68085-28818 450-1046 67635 29864z"/>
     <path class="fil220" d="m61812 39610l-67725-29655 463-1040 67262 30695z"/>
     <path class="fil219" d="m61812 39610l-67354-30487 475-1034 66879 31521z"/>
     <path class="fil218" d="m61812 39610l-66974-31315 489-1028 66485 32343z"/>
     <path class="fil217" d="m61812 39610l-66583-32137 501-1023 66082 33160z"/>
     <path class="fil216" d="m61812 39610l-66182-32955 514-1016 65668 33971z"/>
     <path class="fil215" d="m61812 39610l-65771-33768 526-1010 65245 34778z"/>
     <path class="fil214" d="m61812 39610l-65350-34576 539-1003 64811 35579z"/>
     <path class="fil213" d="m61812 39610l-64919-35378 551-997 64368 36375z"/>
     <path class="fil212" d="m61812 39610l-64478-36175 563-990 63915 37165z"/>
     <path class="fil211" d="m61812 39610l-64028-36967 576-982 63452 37949z"/>
     <path class="fil210" d="m61812 39610l-63567-37753 587-975 62980 38728z"/>
     <path class="fil209" d="m61812 39610l-63097-38533 599-968 62498 39501z"/>
     <path class="fil208" d="m61812 39610l-62618-39308 611-960 62007 40268z"/>
     <path class="fil207" d="m61812 39610l-62129-40076 623-953 61506 41029z"/>
     <path class="fil206" d="m61812 39610l-61630-40838 634-946 60996 41784z"/>
     <path class="fil205" d="m61812 39610l-61123-41595 647-937 60476 42532z"/>
     <path class="fil204" d="m61812 39610l-60606-42344 658-930 59948 43274z"/>
     <path class="fil203" d="m61812 39610l-60079-43088 669-921 59410 44009z"/>
     <path class="fil202" d="m61812 39610l-59544-43825 681-913 58863 44738z"/>
     <path class="fil201" d="m61812 39610l-59000-44555 692-904 58308 45459z"/>
     <path class="fil200" d="m61812 39610l-58446-45278 703-896 57743 46174z"/>
     <path class="fil199" d="m61812 39610l-57884-45995 714-887 57170 46882z"/>
     <path class="fil198" d="m61812 39610l-57313-46705 725-878 56588 47583z"/>
     <path class="fil197" d="m61812 39610l-56733-47407 735-869 55998 48276z"/>
     <path class="fil196" d="m61812 39610l-56145-48103 746-860 55399 48963z"/>
     <path class="fil195" d="m61812 39610l-55548-48791 757-850 54791 49641z"/>
     <path class="fil194" d="m61812 39610l-54943-49471 767-842 54176 50313z"/>
     <path class="fil193" d="m61812 39610l-54329-50144 777-832 53552 50976z"/>
     <path class="fil192" d="m61812 39610l-53707-50810 787-822 52920 51632z"/>
     <path class="fil191" d="m61812 39610l-53077-51468 797-812 52280 52280z"/>
     <path class="fil190" d="m61812 39610l-52439-52118 808-802 51631 52920z"/>
     <path class="fil189" d="m61812 39610l-51793-52760 817-792 50976 53552z"/>
     <path class="fil188" d="m61812 39610l-51139-53394 827-782 50312 54176z"/>
     <path class="fil187" d="m61812 39610l-50477-54020 836-772 49641 54792z"/>
     <path class="fil186" d="m61812 39610l-49808-54638 846-761 48962 55399z"/>
     <path class="fil185" d="m61812 39610l-49131-55247 855-751 48276 55998z"/>
     <path class="fil184" d="m61812 39610l-48447-55848 865-741 47582 56589z"/>
     <path class="fil183" d="m61812 39610l-47755-56441 874-730 46881 57171z"/>
     <path class="fil182" d="m61812 39610l-47056-57025 882-719 46174 57744z"/>
     <path class="fil181" d="m61812 39610l-46350-57600 891-709 45459 58309z"/>
     <path class="fil180" d="m61812 39610l-45637-58167 900-697 44737 58864z"/>
     <path class="fil179" d="m61812 39610l-44917-58725 909-686 44008 59411z"/>
     <path class="fil178" d="m61812 39610l-44190-59274 917-674 43273 59948z"/>
     <path class="fil177" d="m61812 39610l-43457-59813 926-664 42531 60477z"/>
     <path class="fil176" d="m61812 39610l-42716-60344 933-652 41783 60996z"/>
     <path class="fil175" d="m61812 39610l-41970-60866 942-641 41028 61507z"/>
     <path class="fil174" d="m61812 39610l-41217-61378 949-629 40268 62007z"/>
     <path class="fil173" d="m61812 39610l-40457-61882 956-617 39501 62499z"/>
     <path class="fil172" d="m61812 39610l-39692-62375 964-606 38728 62981z"/>
     <path class="fil171" d="m61812 39610l-38920-62860 971-593 37949 63453z"/>
     <path class="fil170" d="m61812 39610l-38143-63334 979-582 37164 63916z"/>
     <path class="fil169" d="m61812 39610l-37360-63799 986-570 36374 64369z"/>
     <path class="fil168" d="m61812 39610l-36571-64255 993-557 35578 64812z"/>
     <path class="fil167" d="m61812 39610l-35777-64700 1e3 -545 34777 65245z"/>
     <path class="fil166" d="m61812 39610l-34977-65136 1006-533 33971 65669z"/>
     <path class="fil165" d="m61812 39610l-34172-65562 1013-520 33159 66082z"/>
     <path class="fil164" d="m61812 39610l-33362-65978 1020-508 32342 66486z"/>
     <path class="fil163" d="m61812 39610l-32546-66384 1025-495 31521 66879z"/>
     <path class="fil162" d="m61812 39610l-31726-66780 1032-483 30694 67263z"/>
     <path class="fil161" d="m61812 39610l-30901-67166 1037-469 29864 67635z"/>
     <path class="fil160" d="m61812 39610l-30071-67542 1043-456 29028 67998z"/>
     <path class="fil159" d="m61812 39610l-29237-67907 1049-444 28188 68351z"/>
     <path class="fil158" d="m61812 39610l-28398-68262 1054-431 27344 68693z"/>
     <path class="fil157" d="m61812 39610l-27555-68607 1059-418 26496 69025z"/>
     <path class="fil156" d="m61812 39610l-26707-68941 1064-405 25643 69346z"/>
     <path class="fil155" d="m61812 39610l-25856-69265 1069-391 24787 69656z"/>
     <path class="fil154" d="m61812 39610l-25001-69578 1074-378 23927 69956z"/>
     <path class="fil153" d="m61812 39610l-24142-69881 1079-365 23063 70246z"/>
     <path class="fil152" d="m61812 39610l-23279-70173 1083-352 22196 70525z"/>
     <path class="fil151" d="m61812 39610l-22413-70454 1087-339 21326 70793z"/>
     <path class="fil150" d="m61812 39610l-21543-70725 1091-325 20452 71050z"/>
     <path class="fil149" d="m61812 39610l-20670-70985 1095-312 19575 71297z"/>
     <path class="fil148" d="m61812 39610l-19794-71234 1099-299 18695 71533z"/>
     <path class="fil147" d="m61812 39610l-18915-71473 1102-284 17813 71757z"/>
     <path class="fil146" d="m61812 39610l-18033-71701 1106-270 16927 71971z"/>
     <path class="fil145" d="m61812 39610l-17148-71917 1109-257 16039 72174z"/>
     <path class="fil144" d="m61812 39610l-16261-72123 1112-244 15149 72367z"/>
     <path class="fil143" d="m61812 39610l-15371-72318 1115-230 14256 72548z"/>
     <path class="fil142" d="m61812 39610l-14479-72502 1118-216 13361 72718z"/>
     <path class="fil141" d="m61812 39610l-13585-72675 1121-202 12464 72877z"/>
     <path class="fil140" d="m61812 39610l-12689-72836 1123-189 11566 73025z"/>
     <path class="fil139" d="m61812 39610l-11790-72987 1125-175 10665 73162z"/>
     <path class="fil138" d="m61812 39610l-10890-73127 1127-161 9763 73288z"/>
     <path class="fil137" d="m61812 39610l-9988-73256 1129-146 8859 73402z"/>
     <path class="fil136" d="m61812 39610l-9085-73373 1131-133 7954 73506z"/>
     <path class="fil135" d="m61812 39610l-8181-73479 1133-120 7048 73599z"/>
     <path class="fil134" d="m61812 39610l-7275-73575 1134-105 6141 73680z"/>
     <path class="fil133" d="m61812 39610l-6368-73659 1135-91 5233 73750z"/>
     <path class="fil132" d="m61812 39610l-5460-73732 1136-77 4324 73809z"/>
     <path class="fil131" d="m61812 39610l-4551-73793 1137-63 3414 73856z"/>
     <path class="fil130" d="m61812 39610l-3642-73844 1138-49 2504 73893z"/>
     <path class="fil129" d="m61812 39610l-2732-73883 1138-35 1594 73918z"/>
     <path class="fil128" d="m61812 39610l-1821-73911 1138-21 683 73932z"/>
     <path class="fil127" d="m61812 39610l-911-73928 1139-7-228 73935z"/>
     <path class="fil126" d="m61812 39610v-73933l1139 7-1139 73926z"/>
     <path class="fil125" d="m61812 39610l911-73928 1139 21-2050 73907z"/>
     <path class="fil124" d="m61812 39610l1822-73911 1138 35-2960 73876z"/>
     <path class="fil123" d="m61812 39610l2732-73883 1138 49-3870 73834z"/>
     <path class="fil122" d="m61812 39610l3642-73844 1137 63-4779 73781z"/>
     <path class="fil121" d="m61812 39610l4552-73793 1136 77-5688 73716z"/>
     <path class="fil120" d="m61812 39610l5460-73732 1135 92-6595 73640z"/>
     <path class="fil119" d="m61812 39610l6368-73659 1134 105-7502 73554z"/>
     <path class="fil118" d="m61812 39610l7275-73575 1133 119-8408 73456z"/>
     <path class="fil117" d="m61812 39610l8181-73479 1131 132-9312 73347z"/>
     <path class="fil116" d="m61812 39610l9086-73373 1129 147-10215 73226z"/>
     <path class="fil115" d="m61812 39610l9989-73256 1127 161-11116 73095z"/>
     <path class="fil114" d="m61812 39610l10891-73127 1125 175-12016 72952z"/>
     <path class="fil113" d="m61812 39610l11791-72987 1123 188-12914 72799z"/>
     <path class="fil112" d="m61812 39610l12689-72836 1121 202-13810 72634z"/>
     <path class="fil111" d="m61812 39610l13585-72675 1118 216-14703 72459z"/>
     <path class="fil110" d="m61812 39610l14480-72502 1115 230-15595 72272z"/>
     <path class="fil109" d="m61812 39610l15372-72318 1112 244-16484 72074z"/>
     <path class="fil108" d="m61812 39610l16262-72123 1109 257-17371 71866z"/>
     <path class="fil107" d="m61812 39610l17149-71917 1106 271-18255 71646z"/>
     <path class="fil106" d="m61812 39610l18034-71701 1102 285-19136 71416z"/>
     <path class="fil105" d="m61812 39610l18916-71473 1098 298-20014 71175z"/>
     <path class="fil104" d="m61812 39610l19795-71234 1095 311-20890 70923z"/>
     <path class="fil103" d="m61812 39610l20671-70985 1091 325-21762 70660z"/>
     <path class="fil102" d="m61812 39610l21544-70725 1087 338-22631 70387z"/>
     <path class="fil101" d="m61812 39610l22413-70454 1083 352-23496 70102z"/>
     <path class="fil100" d="m61812 39610l23280-70173 1078 365-24358 69808z"/>
     <path class="fil99" d="m61812 39610l24142-69881 1074 379-25216 69502z"/>
     <path class="fil98" d="m61812 39610l25001-69578 1070 392-26071 69186z"/>
     <path class="fil97" d="m61812 39610l25857-69265 1064 405-26921 68860z"/>
     <path class="fil96" d="m61812 39610l26708-68941 1059 418-27767 68523z"/>
     <path class="fil95" d="m61812 39610l27555-68607 1054 431-28609 68176z"/>
     <path class="fil94" d="m61812 39610l28398-68262 1049 444-29447 67818z"/>
     <path class="fil93" d="m61812 39610l29237-67907 1043 457-30280 67450z"/>
     <path class="fil92" d="m61812 39610l30072-67542 1037 470-31109 67072z"/>
     <path class="fil91" d="m61812 39610l30901-67166 1032 482-31933 66684z"/>
     <path class="fil90" d="m61812 39610l31727-66780 1025 495-32752 66285z"/>
     <path class="fil89" d="m61812 39610l32547-66384 1019 507-33566 65877z"/>
     <path class="fil88" d="m61812 39610l33362-65978 1013 520-34375 65458z"/>
     <path class="fil87" d="m61812 39610l34173-65562 1006 532-35179 65030z"/>
     <path class="fil86" d="m61812 39610l34978-65136 999 544-35977 64592z"/>
     <path class="fil85" d="m61812 39610l35777-64700 993 557-36770 64143z"/>
     <path class="fil84" d="m61812 39610l36572-64255 986 569-37558 63686z"/>
     <path class="fil83" d="m61812 39610l37361-63799 978 581-38339 63218z"/>
     <path class="fil82" d="m61812 39610l38144-63334 971 593-39115 62741z"/>
     <path class="fil81" d="m61812 39610l38921-62860 964 606-39885 62254z"/>
     <path class="fil80" d="m61812 39610l39693-62375 956 617-40649 61758z"/>
     <path class="fil79" d="m61812 39610l40458-61882 949 629-41407 61253z"/>
     <path class="fil78" d="m61812 39610l41217-61378 942 640-42159 60738z"/>
     <path class="fil77" d="m61812 39610l41970-60866 934 652-42904 60214z"/>
     <path class="fil76" d="m61812 39610l42717-60344 925 663-43642 59681z"/>
     <path class="fil75" d="m61812 39610l43457-59813 917 674-44374 59139z"/>
     <path class="fil74" d="m61812 39610l44191-59274 908 687-45099 58587z"/>
     <path class="fil73" d="m61812 39610l44918-58725 900 698-45818 58027z"/>
     <path class="fil72" d="m61812 39610l45638-58167 891 708-46529 57459z"/>
     <path class="fil71" d="m61812 39610l46351-57600 882 719-47233 56881z"/>
     <path class="fil70" d="m61812 39610l47057-57025 874 730-47931 56295z"/>
     <path class="fil69" d="m61812 39610l47756-56441 864 741-48620 55700z"/>
     <path class="fil68" d="m61812 39610l48448-55848 855 751-49303 55097z"/>
     <path class="fil67" d="m61812 39610l49132-55247 846 762-49978 54485z"/>
     <path class="fil66" d="m61812 39610l49809-54638 836 773-50645 53865z"/>
     <path class="fil65" d="m61812 39610l50478-54020 827 783-51305 53237z"/>
     <path class="fil64" d="m61812 39610l51140-53394 817 793-51957 52601z"/>
     <path class="fil63" d="m61812 39610l51794-52760 807 803-52601 51957z"/>
     <path class="fil62" d="m61812 39610l52440-52118 797 813-53237 51305z"/>
     <path class="fil61" d="m61812 39610l53078-51468 787 823-53865 50645z"/>
     <path class="fil60" d="m61812 39610l53708-50810 777 832-54485 49978z"/>
     <path class="fil59" d="m61812 39610l54330-50144 767 841-55097 49303z"/>
     <path class="fil58" d="m61812 39610l54943-49471 757 851-55700 48620z"/>
     <path class="fil57" d="m61812 39610l55549-48791 746 860-56295 47931z"/>
     <path class="fil56" d="m61812 39610l56145-48103 736 870-56881 47233z"/>
     <path class="fil55" d="m61812 39610l56734-47407 725 878-57459 46529z"/>
     <path class="fil54" d="m61812 39610l57314-46705 713 887-58027 45818z"/>
     <path class="fil53" d="m61812 39610l57885-45995 702 896-58587 45099z"/>
     <path class="fil52" d="m61812 39610l58447-45278 692 904-59139 44374z"/>
     <path class="fil51" d="m61812 39610l59000-44555 681 913-59681 43642z"/>
     <path class="fil50" d="m61812 39610l59545-43825 669 921-60214 42904z"/>
     <path class="fil49" d="m61812 39610l60080-43088 658 929-60738 42159z"/>
     <path class="fil48" d="m61812 39610l60606-42344 647 937-61253 41407z"/>
     <path class="fil47" d="m61812 39610l61123-41595 635 946-61758 40649z"/>
     <path class="fil46" d="m61812 39610l61631-40838 623 953-62254 39885z"/>
     <path class="fil45" d="m61812 39610l62130-40076 611 961-62741 39115z"/>
     <path class="fil44" d="m61812 39610l62619-39308 599 968-63218 38340z"/>
     <path class="fil43" d="m61812 39610l63098-38533 587 975-63685 37558z"/>
     <path class="fil42" d="m61812 39610l63568-37753 575 983-64143 36770z"/>
     <path class="fil41" d="m61812 39610l64028-36967 564 990-64592 35977z"/>
     <path class="fil40" d="m61812 39610l64479-36175 551 996-65030 35179z"/>
     <path class="fil39" d="m61812 39610l64920-35378 538 1003-65458 34375z"/>
     <path class="fil38" d="m61812 39610l65351-34576 526 1010-65877 33566z"/>
     <path class="fil37" d="m61812 39610l65772-33768 513 1016-66285 32752z"/>
     <path class="fil36" d="m61812 39610l66183-32955 501 1022-66684 31933z"/>
     <path class="fil35" d="m61812 39610l66583-32137 489 1028-67072 31109z"/>
     <path class="fil34" d="m61812 39610l66974-31315 476 1035-67450 30280z"/>
     <path class="fil33" d="m61812 39610l67355-30487 463 1040-67818 29447z"/>
     <path class="fil32" d="m61812 39610l67726-29655 450 1046-68176 28609z"/>
     <path class="fil31" d="m61812 39610l68086-28818 437 1051-68523 27767z"/>
     <path class="fil30" d="m61812 39610l68436-27977 424 1056-68860 26921z"/>
     <path class="fil29" d="m61812 39610l68775-27132 411 1061-69186 26071z"/>
     <path class="fil28" d="m61812 39610l69104-26283 398 1067-69502 25216z"/>
     <path class="fil27" d="m61812 39610l69423-25430 385 1072-69808 24358z"/>
     <path class="fil26" d="m61812 39610l69731-24572 371 1076-70102 23496z"/>
     <path class="fil25" d="m61812 39610l70028-23711 359 1080-70387 22631z"/>
     <path class="fil24" d="m61812 39610l70315-22847 345 1085-70660 21762z"/>
     <path class="fil23" d="m61812 39610l70591-21979 332 1089-70923 20890z"/>
     <path class="fil22" d="m61812 39610l70856-21108 319 1094-71175 20014z"/>
     <path class="fil21" d="m61812 39610l71111-20233 305 1097-71416 19136z"/>
     <path class="fil20" d="m61812 39610l71355-19355 291 1100-71646 18255z"/>
     <path class="fil19" d="m61812 39610l71588-18475 278 1104-71866 17371z"/>
     <path class="fil18" d="m61812 39610l71810-17592 264 1108-72074 16484z"/>
     <path class="fil17" d="m61812 39610l72021-16706 251 1111-72272 15595z"/>
     <path class="fil16" d="m61812 39610l72222-15817 237 1114-72459 14703z"/>
     <path class="fil15" d="m61812 39610l72411-14926 223 1116-72634 13810z"/>
     <path class="fil14" d="m61812 39610l72590-14033 209 1119-72799 12914z"/>
     <path class="fil13" d="m61812 39610l72757-13138 195 1122-72952 12016z"/>
     <path class="fil12" d="m61812 39610l72913-12240 182 1124-73095 11116z"/>
     <path class="fil11" d="m61812 39610l73059-11341 167 1126-73226 10215z"/>
     <path class="fil10" d="m61812 39610l73193-10440 154 1128-73347 9312z"/>
     <path class="fil9" d="m61812 39610l73316-9538 140 1130-73456 8408z"/>
     <path class="fil8" d="m61812 39610l73428-8634 126 1132-73554 7502z"/>
     <path class="fil7" d="m61812 39610l73528-7728 112 1133-73640 6595z"/>
     <path class="fil6" d="m61812 39610l73618-6822 98 1134-73716 5688z"/>
     <path class="fil5" d="m61812 39610l73697-5915 84 1136-73781 4779z"/>
     <path class="fil4" d="m61812 39610l73764-5006 70 1136-73834 3870z"/>
     <path class="fil3" d="m61812 39610l73820-4097 56 1137-73876 2960z"/>
     <path class="fil2" d="m61812 39610l73865-3187 42 1137-73907 2050z"/>
     <path class="fil1" d="m61812 39610l73898-2277 28 1138-73926 1139z"/>
     <path class="fil0" d="m61812 39610l73921-1367 14 1139-73935 228z"/>
     <path class="fil255" d="m61812 39610l73932-456v911l-73932-455z"/>
    </g>
      <path class="fil256" d="m69337 45697c0-8637-7044-15681-15681-15681s-15681 7044-15681 15681 7044 15682 15681 15682 15681-7045 15681-15682z"/>
      <path class="fil256" d="m1.1349e5 70897c0-6303-5749-11443-12798-11443-6469 0-11842 4329-12683 9912 10514 902 19275 2328 25159 4082 211-821 322-1675 322-2551z"/>
      <path class="fil256" d="m99757 28173c-29 15-59 31-89 47-4645 2528-5960 9134-2927 14706 3033 5571 9294 8054 13938 5526 156-84 307-174 455-267-546-624-1052-1203-1500-1724-5444-6329-6586-11195-9877-18288z"/>
      <path class="fil256" d="m58971 605c-1110 2453-1728 5172-1728 8031 0 10786 8797 19583 19583 19583 7490 0 14020-4244 17312-10448-3915-6046-8906-11126-16399-13666-1475-502-2808-928-3983-1393-4845-1924-9777-2591-14785-2107z"/>
      <path class="fil256" d="m25019 37699c0-3345-498-6464-1353-9078-3136 6852-4349 11646-9678 17840-827 962-1850 2119-2961 3392 1488 2780 3484 4486 5672 4486 4583 0 8320-7475 8320-16640z"/>
      <path class="fil256" d="m45385 68703c-3039-3279-7885-5407-13326-5407-7073 0-13138 3596-15539 8640 7489-1524 17478-2666 28865-3233z"/>
    <path class="fil257 str0" d="m77740 4105c11000 3729 16609 12933 21335 22631 3842 7893 4755 12978 10559 19725 2658 3093 7346 8200 10454 12693 681 989 1243 2022 1692 3100 2157 5175 1655 11173-471 16371-68 157-60 202-60 37 0-5721-26637-10357-59490-10357-31887 0-57903 4366-59423 9848-127 449-60 389-255-120-1932-5062-2306-10799-239-15779 449-1078 1011-2111 1692-3100 3108-4493 7796-9600 10454-12693 5804-6747 6725-11832 10567-19725 4718-9698 10327-18902 21328-22631 1146-390 2209-734 3167-1101 8440-3220 16693-3475 24706-292 1175 464 2508 891 3984 1393z"/>
    <path class="fil258" d="m61811 78243l-59503-32c1-63 7-127 14-190l59489 222z"/>
    <path class="fil259" d="m61811 78243l-59491-191c5-53 13-106 23-158l59468 349z"/>
    <path class="fil260" d="m61811 78243l-59475-318c9-53 21-106 34-159l59441 477z"/>
    <path class="fil261" d="m61811 78243l-59448-445c13-53 27-106 45-159l59403 604z"/>
    <path class="fil262" d="m61811 78243l-59415-572c17-53 37-106 58-159l59357 731z"/>
    <path class="fil263" d="m61811 78243l-59369-699c20-53 41-106 66-159l59303 858z"/>
    <path class="fil264" d="m61811 78243l-59319-826c24-55 53-110 83-164l59236 990z"/>
    <path class="fil265" d="m61811 78243l-59252-959c27-53 56-105 88-158l59164 1117z"/>
    <path class="fil266" d="m61811 78243l-59185-1086c31-53 68-106 104-158l59081 1244z"/>
    <path class="fil267" d="m61811 78243l-59102-1213c35-53 70-106 110-159l58992 1372z"/>
    <path class="fil268" d="m61811 78243l-59017-1340c38-53 83-106 126-159l58891 1499z"/>
    <path class="fil269" d="m61811 78243l-58916-1467c41-51 82-103 128-154l58788 1621z"/>
    <path class="fil270" d="m61811 78243l-58813-1594c45-51 96-102 145-153l58668 1747z"/>
    <path class="fil271" d="m61811 78243l-58698-1716c50-53 100-106 154-159l58544 1875z"/>
    <path class="fil272" d="m61811 78243l-58578-1843c54-53 115-106 173-159l58405 2002z"/>
    <path class="fil273" d="m61811 78243l-58439-1970c58-53 115-106 177-159l58262 2129z"/>
    <path class="fil274" d="m61811 78243l-58300-2097c60-52 126-103 190-154l58110 2251z"/>
    <path class="fil275" d="m61811 78243l-58149-2219c65-53 130-106 201-159l57948 2378z"/>
    <path class="fil276" d="m61811 78243l-57991-2346c67-52 140-103 212-154l57779 2500z"/>
    <path class="fil277" d="m61811 78243l-57823-2468c74-53 146-106 225-159l57598 2627z"/>
    <path class="fil278" d="m61811 78243l-57646-2595c75-52 156-103 236-154l57410 2749z"/>
    <path class="fil279" d="m61811 78243l-57459-2717c79-51 157-103 240-154l57219 2871z"/>
    <path class="fil280" d="m61811 78243l-57263-2844c83-52 172-102 259-153l57004 2997z"/>
    <path class="fil281" d="m61811 78243l-57058-2966c87-51 173-102 264-153l56794 3119z"/>
    <path class="fil282" d="m61811 78243l-56851-3088c91-51 187-102 282-153l56569 3241z"/>
    <path class="fil283" d="m61811 78243l-56627-3210c95-51 189-102 288-153l56339 3363z"/>
    <path class="fil284" d="m61811 78243l-56401-3332c96-49 197-99 296-148l56105 3480z"/>
    <path class="fil285" d="m61811 78243l-56158-3453c99-50 198-100 301-149l55857 3602z"/>
    <path class="fil286" d="m61811 78243l-55914-3575c104-50 213-99 320-148l55594 3723z"/>
    <path class="fil287" d="m61811 78243l-55662-3692c107-49 214-99 325-148l55337 3840z"/>
    <path class="fil288" d="m61811 78243l-55398-3813c112-50 228-99 344-148l55054 3961z"/>
    <path class="fil289" d="m61811 78243l-55127-3930c115-49 229-99 349-148l54778 4078z"/>
    <path class="fil290" d="m61811 78243l-54844-4052c116-48 237-95 357-143l54487 4195z"/>
    <path class="fil291" d="m61811 78243l-54554-4168c119-48 238-96 362-144l54192 4312z"/>
    <path class="fil292" d="m61811 78243l-54263-4285c124-48 253-95 381-143l53882 4428z"/>
    <path class="fil293" d="m61811 78243l-53953-4401c127-48 254-96 385-143l53568 4544z"/>
    <path class="fil294" d="m61811 78243l-53642-4518c131-48 268-95 403-142l53239 4660z"/>
    <path class="fil295" d="m61811 78243l-53327-4629c136-48 271-96 411-143l52916 4772z"/>
    <path class="fil296" d="m61811 78243l-52997-4746c140-47 285-94 428-142l52569 4888z"/>
    <path class="fil297" d="m61811 78243l-52661-4857c144-48 287-95 435-143l52226 5e3z"/>
    <path class="fil298" d="m61811 78243l-52311-4973c144-46 292-92 440-138l51871 5111z"/>
    <path class="fil299" d="m61811 78243l-51957-5084c147-46 295-92 447-138l51510 5222z"/>
    <path class="fil300" d="m61811 78243l-51600-5195c152-47 308-92 464-138l51136 5333z"/>
    <path class="fil301" d="m61811 78243l-51227-5306c155-46 312-92 471-138l50756 5444z"/>
    <path class="fil302" d="m61811 78243l-50850-5417c155-45 315-89 474-133l50376 5550z"/>
    <path class="fil303" d="m61811 78243l-50470-5524c163-45 327-91 495-136l49975 5660z"/>
    <path class="fil304" d="m61811 78243l-50075-5634c163-44 331-88 498-132l49577 5766z"/>
    <path class="fil305" d="m61811 78243l-49676-5740c167-44 335-88 506-132l49170 5872z"/>
    <path class="fil306" d="m61811 78243l-49274-5846c172-44 347-88 522-132l48752 5978z"/>
    <path class="fil307" d="m61811 78243l-48857-5951c176-45 353-89 533-132l48324 6083z"/>
    <path class="fil308" d="m61811 78243l-48433-6057c175-43 353-86 531-128l47902 6185z"/>
    <path class="fil258" d="m61811 78243l-48012-6158c183-44 368-88 556-131l47456 6289z"/>
    <path class="fil259" d="m61811 78243l-47568-6264c182-42 368-84 554-126l47014 6390z"/>
    <path class="fil260" d="m61811 78243l-47128-6364c186-43 375-85 565-127l46563 6491z"/>
    <path class="fil261" d="m61811 78243l-46681-6465c191-42 385-84 580-126l46101 6591z"/>
    <path class="fil262" d="m61811 78243l-46221-6565c190-41 381-82 575-122l45646 6687z"/>
    <path class="fil309" d="m61811 78243l-45752-6665c194-41 390-82 588-122l45164 6787z"/>
    <path class="fil264" d="m61811 78243l-45290-6761c199-41 399-81 601-121l44689 6882z"/>
    <path class="fil265" d="m61811 78243l-44818-6857c203-41 407-81 614-121l44204 6978z"/>
    <path class="fil266" d="m61811 78243l-44333-6953c206-40 414-80 624-120l43709 7073z"/>
    <path class="fil267" d="m61811 78243l-43843-7048c206-39 412-78 621-117l43222 7165z"/>
    <path class="fil268" d="m61811 78243l-43341-7142c209-39 421-78 633-116l42708 7258z"/>
    <path class="fil269" d="m61811 78243l-42830-7236c209-38 418-76 630-113l42200 7349z"/>
    <path class="fil270" d="m61811 78243l-42322-7327c212-38 426-75 642-112l41680 7439z"/>
    <path class="fil271" d="m61811 78243l-41809-7417c217-38 434-75 654-112l41155 7529z"/>
    <path class="fil272" d="m61811 78243l-41283-7507c220-37 442-74 666-110l40617 7617z"/>
    <path class="fil273" d="m61811 78243l-40749-7596c219-36 437-72 659-107l40090 7703z"/>
    <path class="fil274" d="m61811 78243l-40221-7682c222-36 446-71 671-106l39550 7788z"/>
    <path class="fil275" d="m61811 78243l-39684-7767c227-36 453-71 683-106l39001 7873z"/>
    <path class="fil276" d="m61811 78243l-39138-7852c230-35 464-70 698-105l38440 7957z"/>
    <path class="fil277" d="m61811 78243l-38580-7936c230-34 459-69 691-102l37889 8038z"/>
    <path class="fil278" d="m61811 78243l-38017-8019c232-34 468-68 704-101l37313 8120z"/>
    <path class="fil279" d="m61811 78243l-37456-8100c237-33 472-67 712-100l36744 8200z"/>
    <path class="fil280" d="m61811 78243l-36890-8180c240-33 484-66 727-98l36163 8278z"/>
    <path class="fil281" d="m61811 78243l-36311-8258c239-33 478-65 720-97l35591 8355z"/>
    <path class="fil282" d="m61811 78243l-35725-8337c242-32 488-63 733-95l34992 8432z"/>
    <path class="fil283" d="m61811 78243l-35142-8412c246-32 491-64 740-95l34402 8507z"/>
    <path class="fil284" d="m61811 78243l-34557-8487c245-31 494-61 743-91l33814 8578z"/>
    <path class="fil285" d="m61811 78243l-33957-8561c249-30 497-61 749-90l33208 8651z"/>
    <path class="fil286" d="m61811 78243l-33351-8634c247-30 498-58 749-87l32602 8721z"/>
    <path class="fil287" d="m61811 78243l-32747-8704c255-30 511-60 769-88l31978 8792z"/>
    <path class="fil288" d="m61811 78243l-32142-8774c256-29 514-57 773-85l31369 8859z"/>
    <path class="fil289" d="m61811 78243l-31521-8842c258-29 515-57 775-85l30746 8927z"/>
    <path class="fil290" d="m61811 78243l-30898-8910c257-28 518-55 778-81l30120 8991z"/>
    <path class="fil291" d="m61811 78243l-30277-8975c265-27 530-55 798-82l29479 9057z"/>
    <path class="fil292" d="m61811 78243l-29638-9041c259-26 523-52 785-77l28853 9118z"/>
    <path class="fil293" d="m61811 78243l-29013-9103c267-26 534-52 804-77l28209 9180z"/>
    <path class="fil294" d="m61811 78243l-28371-9165c267-26 536-50 805-75l27566 9240z"/>
    <path class="fil295" d="m61811 78243l-27728-9225c270-25 539-50 811-74l26917 9299z"/>
    <path class="fil296" d="m61811 78243l-27073-9285c268-24 540-47 810-71l26263 9356z"/>
    <path class="fil297" d="m61811 78243l-26430-9341c275-24 551-48 829-71l25601 9412z"/>
    <path class="fil298" d="m61811 78243l-25771-9398c275-24 552-46 829-68l24942 9466z"/>
    <path class="fil299" d="m61811 78243l-25111-9452c277-23 555-46 835-68l24276 9520z"/>
    <path class="fil300" d="m61811 78243l-24452-9506c281-22 564-44 847-65l23605 9571z"/>
    <path class="fil301" d="m61811 78243l-23781-9558c280-21 561-42 843-63l22938 9621z"/>
    <path class="fil302" d="m61811 78243l-23104-9609c277-21 558-40 837-60l22267 9669z"/>
    <path class="fil303" d="m61811 78243l-22428-9658c280-20 561-39 844-59l21584 9717z"/>
    <path class="fil304" d="m61811 78243l-21752-9706c282-19 567-38 851-56l20901 9762z"/>
    <path class="fil305" d="m61811 78243l-21069-9751c283-19 567-37 852-56l20217 9807z"/>
    <path class="fil306" d="m61811 78243l-20387-9796c285-18 572-36 858-53l19529 9849z"/>
    <path class="fil307" d="m61811 78243l-19703-9838c287-18 575-36 864-52l18839 9890z"/>
    <path class="fil308" d="m61811 78243l-19010-9881c289-17 579-33 870-49l18140 9930z"/>
    <path class="fil258" d="m61811 78243l-18311-9921c288-16 577-32 867-48l17444 9969z"/>
    <path class="fil259" d="m61811 78243l-17621-9959c291-16 584-31 877-46l16744 10005z"/>
    <path class="fil260" d="m61811 78243l-16921-9996c291-15 582-30 875-44l16046 10040z"/>
    <path class="fil261" d="m61811 78243l-16216-10032c292-15 586-28 880-42l15336 10074z"/>
    <path class="fil262" d="m61811 78243l-15514-10066c293-13 586-27 881-40l14633 10106z"/>
    <path class="fil263" d="m61811 78243l-14812-10099c296-13 593-25 891-38l13921 10137z"/>
    <path class="fil264" d="m61811 78243l-14100-10129c294-12 589-25 885-37l13215 10166z"/>
    <path class="fil265" d="m61811 78243l-13388-10159c294-12 590-23 886-34l12502 10193z"/>
    <path class="fil266" d="m61811 78243l-12680-10186c297-11 595-23 893-33l11787 10219z"/>
    <path class="fil267" d="m61811 78243l-11966-10213c298-11 598-20 897-30l11069 10243z"/>
    <path class="fil268" d="m61811 78243l-11248-10237c298-10 596-20 896-30l10352 10267z"/>
    <path class="fil310" d="m61811 78243l-10531-10261c298-10 600-18 900-26l9631 10287z"/>
    <path class="fil270" d="m61811 78243l-9811-10282c300-9 600-18 901-26l8910 10308z"/>
    <path class="fil271" d="m61811 78243l-9091-10303c302-8 606-15 909-23l8182 10326z"/>
    <path class="fil272" d="m61811 78243l-8368-10321c301-7 602-15 905-22l7463 10343z"/>
    <path class="fil273" d="m61811 78243l-7644-10339c301-7 604-12 907-18l6737 10357z"/>
    <path class="fil274" d="m61811 78243l-6918-10354c301-6 601-12 904-17l6014 10371z"/>
    <path class="fil275" d="m61811 78243l-6192-10368c302-6 607-10 911-15l5281 10383z"/>
    <path class="fil276" d="m61811 78243l-5468-10380c304-5 607-10 911-14l4557 10394z"/>
    <path class="fil277" d="m61811 78243l-4738-10391c303-4 607-8 911-11l3827 10402z"/>
    <path class="fil278" d="m61811 78243l-4012-10400c303-4 606-7 911-10l3101 10410z"/>
    <path class="fil279" d="m61811 78243l-3282-10408c303-3 607-5 911-7l2371 10415z"/>
    <path class="fil280" d="m61811 78243l-2551-10414c304-2 607-4 911-6l1640 10420z"/>
    <path class="fil281" d="m61811 78243l-1826-10419c304-1 610-2 916-3l910 10422z"/>
    <path class="fil282" d="m61811 78243l-1096-10422c305-1 610-1 916-2l180 10424z"/>
    <path class="fil283" d="m61811 78243l-365-10423c122 0 243-1 365-1 182 0 363 1 545 1l-545 10423z"/>
    <path class="fil284" d="m61811 78243l365-10423c304 0 608 1 911 2l-1276 10421z"/>
    <path class="fil285" d="m61811 78243l1096-10422c304 1 607 3 910 4l-2006 10418z"/>
    <path class="fil286" d="m61811 78243l1827-10419c304 2 607 4 910 6l-2737 10413z"/>
    <path class="fil311" d="m61811 78243l2556-10414c304 2 608 5 911 8l-3467 10406z"/>
    <path class="fil288" d="m61811 78243l3282-10408c304 3 607 6 909 10l-4191 10398z"/>
    <path class="fil289" d="m61811 78243l4012-10400c304 4 607 7 910 12l-4922 10388z"/>
    <path class="fil312" d="m61811 78243l4738-10391c304 4 606 9 908 14l-5646 10377z"/>
    <path class="fil291" d="m61811 78243l5468-10380 906 15-6374 10365z"/>
    <path class="fil292" d="m61811 78243l6192-10368c304 5 606 12 908 18l-7100 10350z"/>
    <path class="fil293" d="m61811 78243l6918-10354c303 7 606 13 907 20l-7825 10334z"/>
    <path class="fil294" d="m61811 78243l7644-10339c303 7 604 15 905 22l-8549 10317z"/>
    <path class="fil295" d="m61811 78243l8368-10321c302 7 603 15 903 23l-9271 10298z"/>
    <path class="fil296" d="m61811 78243l9091-10303c301 8 601 17 900 26l-9991 10277z"/>
    <path class="fil297" d="m61811 78243l9811-10282c301 8 601 17 900 27l-10711 10255z"/>
    <path class="fil298" d="m61811 78243l10532-10261c300 9 597 19 896 30l-11428 10231z"/>
    <path class="fil299" d="m61811 78243l11249-10237c299 10 598 20 895 30l-12144 10207z"/>
    <path class="fil300" d="m61811 78243l11966-10213c299 10 595 22 892 34l-12858 10179z"/>
    <path class="fil301" d="m61811 78243l12680-10186c296 11 592 22 886 34l-13566 10152z"/>
    <path class="fil302" d="m61811 78243l13389-10159c297 12 592 25 888 38l-14277 10121z"/>
    <path class="fil303" d="m61811 78243l14105-10129c295 13 590 25 883 39l-14988 10090z"/>
    <path class="fil304" d="m61811 78243l14812-10099c294 14 585 28 878 42l-15690 10057z"/>
    <path class="fil305" d="m61811 78243l15519-10065c294 14 588 27 879 42l-16398 10023z"/>
    <path class="fil306" d="m61811 78243l16221-10032c294 14 585 30 877 45l-17098 9987z"/>
    <path class="fil307" d="m61811 78243l16921-9996c293 15 586 30 876 46l-17797 9950z"/>
    <path class="fil308" d="m61811 78243l17621-9959c290 15 578 32 866 49l-18487 9910z"/>
    <path class="fil258" d="m61811 78243l18311-9921c292 17 584 33 874 51l-19185 9870z"/>
    <path class="fil259" d="m61811 78243l19010-9881c289 17 576 35 863 53l-19873 9828z"/>
    <path class="fil313" d="m61811 78243l19703-9838c287 17 573 35 857 53l-20560 9785z"/>
    <path class="fil261" d="m61811 78243l20391-9796c284 18 565 37 847 56l-21238 9740z"/>
    <path class="fil262" d="m61811 78243l21069-9751c286 19 571 38 854 57l-21923 9694z"/>
    <path class="fil263" d="m61811 78243l21752-9706c284 20 565 40 847 61l-22599 9645z"/>
    <path class="fil264" d="m61811 78243l22433-9657c283 20 567 40 848 61l-23281 9596z"/>
    <path class="fil265" d="m61811 78243l23105-9609c280 21 557 42 836 64l-23941 9545z"/>
    <path class="fil266" d="m61811 78243l23781-9558c277 22 554 43 829 65l-24610 9493z"/>
    <path class="fil267" d="m61811 78243l24452-9506c274 21 546 44 818 67l-25270 9439z"/>
    <path class="fil268" d="m61811 78243l25111-9452c277 22 554 45 828 68l-25939 9384z"/>
    <path class="fil269" d="m61811 78243l25771-9398c273 23 544 46 815 70l-26586 9328z"/>
    <path class="fil270" d="m61811 78243l26430-9341c271 23 541 47 809 71l-27239 9270z"/>
    <path class="fil271" d="m61811 78243l27073-9285c271 24 539 49 808 74l-27881 9211z"/>
    <path class="fil272" d="m61811 78243l27728-9225c268 25 536 50 802 75l-28530 9150z"/>
    <path class="fil273" d="m61811 78243l28371-9165c265 25 526 51 789 77l-29160 9088z"/>
    <path class="fil274" d="m61811 78243l29013-9103c262 26 524 52 783 78l-29796 9025z"/>
    <path class="fil275" d="m61811 78243l29638-9041c268 27 532 55 797 82l-30435 8959z"/>
    <path class="fil276" d="m61811 78243l30277-8975c260 27 519 54 777 82l-31054 8893z"/>
    <path class="fil277" d="m61811 78243l30899-8910c261 27 519 56 777 85l-31676 8825z"/>
    <path class="fil278" d="m61811 78243l31525-8842c256 28 512 56 766 85l-32291 8757z"/>
    <path class="fil279" d="m61811 78243l32142-8774c253 28 504 58 754 87l-32896 8687z"/>
    <path class="fil280" d="m61811 78243l32751-8704c255 30 509 59 761 89l-33512 8615z"/>
    <path class="fil281" d="m61811 78243l33351-8634c252 30 500 60 749 91l-34100 8543z"/>
    <path class="fil282" d="m61811 78243l33957-8561c248 31 495 61 741 92l-34698 8469z"/>
    <path class="fil283" d="m61811 78243l34557-8487c249 31 494 63 740 94l-35297 8393z"/>
    <path class="fil314" d="m61811 78243l35143-8412c246 31 491 63 734 95l-35877 8317z"/>
    <path class="fil285" d="m61811 78243l35725-8337c247 32 491 65 734 99l-36459 8238z"/>
    <path class="fil286" d="m61811 78243l36311-8258c243 32 485 66 725 99l-37036 8159z"/>
    <path class="fil287" d="m61811 78243l36890-8180c239 34 476 67 711 101l-37601 8079z"/>
    <path class="fil288" d="m61811 78243l37455-8100c237 34 472 68 705 102l-38160 7998z"/>
    <path class="fil289" d="m61811 78243l38017-8019c237 34 472 69 706 104l-38723 7915z"/>
    <path class="fil290" d="m61811 78243l38580-7936c233 35 465 70 695 105l-39275 7831z"/>
    <path class="fil291" d="m61811 78243l39138-7852c229 35 457 70 683 106l-39821 7746z"/>
    <path class="fil292" d="m61811 78243l39684-7767c225 35 449 71 671 107l-40355 7660z"/>
    <path class="fil315" d="m61811 78243l40221-7682c227 36 453 73 677 110l-40898 7572z"/>
    <path class="fil294" d="m61811 78243l40749-7596c223 37 443 74 663 111l-41412 7485z"/>
    <path class="fil295" d="m61811 78243l41283-7507c220 37 438 74 654 112l-41937 7395z"/>
    <path class="fil296" d="m61811 78243l41809-7417c214 37 427 75 639 112l-42448 7305z"/>
    <path class="fil297" d="m61811 78243l42322-7327c217 38 432 77 645 116l-42967 7211z"/>
    <path class="fil298" d="m61811 78243l42830-7236c212 38 422 77 630 116l-43460 7120z"/>
    <path class="fil299" d="m61811 78243l43341-7142c207 39 415 77 619 116l-43960 7026z"/>
    <path class="fil300" d="m61811 78243l43843-7048c203 39 404 78 604 118l-44447 6930z"/>
    <path class="fil301" d="m61811 78243l44333-6953c201 39 401 79 598 118l-44931 6835z"/>
    <path class="fil302" d="m61811 78243l44818-6857c200 40 398 81 595 121l-45413 6736z"/>
    <path class="fil303" d="m61811 78243l45290-6761c196 40 394 81 587 122l-45877 6639z"/>
    <path class="fil304" d="m61811 78243l45754-6665c198 42 392 84 586 126l-46340 6539z"/>
    <path class="fil305" d="m61811 78243l46221-6565c194 42 389 83 579 126l-46800 6439z"/>
    <path class="fil306" d="m61811 78243l46681-6465c189 42 375 84 562 127l-47243 6338z"/>
    <path class="fil307" d="m61811 78243l47128-6364c186 42 373 84 554 126l-47682 6238z"/>
    <path class="fil308" d="m61811 78243l47570-6263c186 43 369 87 551 131l-48121 6132z"/>
    <path class="fil258" d="m61811 78243l48012-6158c178 42 357 84 531 127l-48543 6031z"/>
    <path class="fil259" d="m61811 78243l48433-6057c179 44 354 88 529 132l-48962 5925z"/>
    <path class="fil260" d="m61811 78243l48857-5951c174 43 349 87 519 131l-49376 5820z"/>
    <path class="fil261" d="m61811 78243l49274-5846c170 44 336 89 503 133l-49777 5713z"/>
    <path class="fil262" d="m61811 78243l49676-5740c166 44 333 88 495 133l-50171 5607z"/>
    <path class="fil263" d="m61811 78243l50075-5634c167 46 329 92 492 137l-50567 5497z"/>
    <path class="fil264" d="m61811 78243l50470-5524c164 46 327 92 486 138l-50956 5386z"/>
    <path class="fil265" d="m61811 78243l50850-5417c159 46 313 92 467 138l-51317 5279z"/>
    <path class="fil266" d="m61811 78243l51227-5306c155 46 310 91 460 138l-51687 5168z"/>
    <path class="fil267" d="m61811 78243l51600-5195c151 45 296 92 443 138l-52043 5057z"/>
    <path class="fil268" d="m61811 78243l51957-5084c151 47 302 95 449 142l-52406 4942z"/>
    <path class="fil269" d="m61811 78243l52312-4973c147 48 288 95 431 143l-52743 4830z"/>
    <path class="fil270" d="m61811 78243l52662-4857c139 46 277 92 412 139l-53074 4718z"/>
    <path class="fil271" d="m61811 78243l52997-4746c139 48 272 96 407 144l-53404 4602z"/>
    <path class="fil272" d="m61811 78243l53327-4629c135 47 269 95 400 143l-53727 4486z"/>
    <path class="fil273" d="m61811 78243l53643-4517c135 48 264 98 394 147l-54037 4370z"/>
    <path class="fil274" d="m61811 78243l53954-4401c131 49 261 98 387 148l-54341 4253z"/>
    <path class="fil275" d="m61811 78243l54262-4285c127 49 249 99 371 149l-54633 4136z"/>
    <path class="fil276" d="m61811 78243l54554-4168c123 49 245 99 364 148l-54918 4020z"/>
    <path class="fil277" d="m61811 78243l54844-4052c118 50 232 99 346 149l-55190 3903z"/>
    <path class="fil278" d="m61811 78243l55127-3930c115 49 229 99 340 148l-55467 3782z"/>
    <path class="fil279" d="m61811 78243l55398-3813c110 49 216 99 322 148l-55720 3665z"/>
    <path class="fil280" d="m61811 78243l55662-3692c107 50 213 99 316 149l-55978 3543z"/>
    <path class="fil281" d="m61811 78243l55914-3575c106 51 207 102 308 154l-56222 3421z"/>
    <path class="fil282" d="m61811 78243l56158-3453c103 51 204 102 302 153l-56460 3300z"/>
    <path class="fil283" d="m61811 78243l56401-3332c98 51 191 103 285 154l-56686 3178z"/>
    <path class="fil314" d="m61811 78243l56627-3210c94 51 188 103 277 154l-56904 3056z"/>
    <path class="fil285" d="m61811 78243l56851-3088c90 51 175 103 261 154l-57112 2934z"/>
    <path class="fil286" d="m61811 78243l57058-2966c86 51 172 102 254 154l-57312 2812z"/>
    <path class="fil287" d="m61811 78243l57263-2844c85 53 165 106 245 159l-57508 2685z"/>
    <path class="fil288" d="m61811 78243l57459-2717c79 51 157 102 231 154l-57690 2563z"/>
    <path class="fil289" d="m61811 78243l57646-2595c74 51 144 102 214 154l-57860 2441z"/>
    <path class="fil290" d="m61811 78243l57823-2468c71 51 141 102 208 154l-58031 2314z"/>
    <path class="fil291" d="m61811 78243l57991-2346c70 53 133 106 198 159l-58189 2187z"/>
    <path class="fil292" d="m61811 78243l58149-2219c64 51 127 102 186 154l-58335 2065z"/>
    <path class="fil293" d="m61811 78243l58300-2097c62 53 117 106 174 159l-58474 1938z"/>
    <path class="fil294" d="m61811 78243l58439-1970c58 53 116 106 169 159l-58608 1811z"/>
    <path class="fil295" d="m61811 78243l58578-1843c54 53 101 106 150 159l-58728 1684z"/>
    <path class="fil296" d="m61811 78243l58698-1716c49 51 98 102 142 154l-58840 1562z"/>
    <path class="fil297" d="m61811 78243l58813-1594c47 53 87 106 128 159l-58941 1435z"/>
    <path class="fil298" d="m61811 78243l58916-1467c42 53 86 106 124 159l-59040 1308z"/>
    <path class="fil299" d="m61811 78243l59018-1340c38 53 71 106 105 159l-59123 1181z"/>
    <path class="fil300" d="m61811 78243l59102-1213c35 53 71 106 102 159l-59204 1054z"/>
    <path class="fil301" d="m61811 78243l59185-1086c31 53 57 106 84 159l-59269 927z"/>
    <path class="fil302" d="m61811 78243l59252-958c29 54 59 109 82 164l-59334 794z"/>
    <path class="fil303" d="m61811 78243l59319-826c24 53 42 106 61 159l-59380 667z"/>
    <path class="fil304" d="m61811 78243l59369-699c20 53 42 106 57 159l-59426 540z"/>
    <path class="fil305" d="m61811 78243l59415-572c16 53 27 106 39 159l-59454 413z"/>
    <path class="fil306" d="m61811 78243l59448-445c12 53 25 106 34 159l-59482 286z"/>
    <path class="fil307" d="m61811 78243l59475-318c9 53 13 106 19 159l-59494 159z"/>
    <path class="fil308" d="m61811 78243l59491-191c6 53 10 106 12 159l-59503 32z"/>
    <path class="fil308" d="m61811 78243l59500-64c1 22 5 43 5 64 0 34-5 67-7 101l-59498-101z"/>
    <path class="fil258" d="m61811 78243l59500 69c-2 53-5 106-11 159l-59489-228z"/>
    <path class="fil259" d="m61811 78243l59491 196c-6 53-14 106-24 159l-59467-355z"/>
    <path class="fil260" d="m61811 78243l59474 323c-9 53-21 106-34 159l-59440-482z"/>
    <path class="fil261" d="m61811 78243l59446 450c-12 53-27 106-44 159l-59402-609z"/>
    <path class="fil262" d="m61811 78243l59413 577c-16 53-36 106-57 159l-59356-736z"/>
    <path class="fil263" d="m61811 78243l59367 704c-20 53-41 106-66 159l-59301-863z"/>
    <path class="fil264" d="m61811 78243l59317 831c-24 55-53 110-83 164l-59234-995z"/>
    <path class="fil265" d="m61811 78243l59250 964c-27 53-56 106-88 159l-59162-1123z"/>
    <path class="fil266" d="m61811 78243l59183 1091c-32 53-68 106-104 159l-59079-1250z"/>
    <path class="fil267" d="m61811 78243l59100 1218c-35 53-71 106-111 159l-58989-1377z"/>
    <path class="fil268" d="m61811 78243l59015 1345c-39 53-84 106-127 159l-58888-1504z"/>
    <path class="fil269" d="m61811 78243l58913 1472c-41 52-82 103-128 154l-58785-1626z"/>
    <path class="fil270" d="m61811 78243l58810 1599c-45 52-95 103-145 154l-58665-1753z"/>
    <path class="fil271" d="m61811 78243l58695 1721c-50 53-100 106-155 159l-58540-1880z"/>
    <path class="fil272" d="m61811 78243l58575 1848c-54 54-115 106-173 159l-58402-2007z"/>
    <path class="fil273" d="m61811 78243l58436 1975c-58 53-115 107-178 159l-58258-2134z"/>
    <path class="fil274" d="m61811 78243l58297 2103c-60 51-126 102-190 153l-58107-2256z"/>
    <path class="fil275" d="m61811 78243l58146 2224c-65 54-131 107-201 159l-57945-2383z"/>
    <path class="fil276" d="m61811 78243l57988 2352c-67 51-140 102-212 153l-57776-2505z"/>
    <path class="fil277" d="m61811 78243l57820 2473c-74 53-147 107-225 159l-57595-2632z"/>
    <path class="fil278" d="m61811 78243l57643 2601c-75 51-156 102-236 153l-57407-2754z"/>
    <path class="fil279" d="m61811 78243l57456 2722c-79 52-157 103-240 154l-57216-2876z"/>
    <path class="fil280" d="m61811 78243l57260 2850c-83 51-172 102-259 153l-57001-3003z"/>
    <path class="fil281" d="m61811 78243l57055 2971c-87 52-173 103-264 154l-56791-3125z"/>
    <path class="fil282" d="m61811 78243l56848 3093c-91 52-187 102-282 153l-56566-3246z"/>
    <path class="fil283" d="m61811 78243l56624 3215c-94 51-188 103-287 153l-56337-3368z"/>
    <path class="fil284" d="m61811 78243l56398 3337c-95 50-196 99-296 148l-56102-3485z"/>
    <path class="fil285" d="m61811 78243l56156 3458c-100 50-198 100-302 149l-55854-3607z"/>
    <path class="fil286" d="m61811 78243l55911 3580c-103 50-212 99-320 148l-55591-3728z"/>
    <path class="fil287" d="m61811 78243l55660 3697c-108 50-214 99-326 148l-55334-3845z"/>
    <path class="fil288" d="m61811 78243l55395 3819c-111 49-228 99-343 148l-55052-3967z"/>
    <path class="fil289" d="m61811 78243l55125 3935c-115 50-230 100-349 149l-54776-4084z"/>
    <path class="fil290" d="m61811 78243l54842 4057c-116 48-237 96-357 143l-54485-4200z"/>
    <path class="fil291" d="m61811 78243l54553 4173c-120 48-239 96-362 144l-54191-4317z"/>
    <path class="fil292" d="m61811 78243l54261 4290c-124 48-253 96-380 143l-53881-4433z"/>
    <path class="fil293" d="m61811 78243l53953 4406c-128 48-255 96-386 144l-53567-4550z"/>
    <path class="fil294" d="m61811 78243l53642 4523c-131 48-268 95-404 143l-53238-4666z"/>
    <path class="fil295" d="m61811 78243l53326 4635c-136 47-270 95-410 142l-52916-4777z"/>
    <path class="fil296" d="m61811 78243l52996 4751c-139 48-284 95-428 142l-52568-4893z"/>
    <path class="fil297" d="m61811 78243l52661 4862c-143 48-287 96-435 143l-52226-5005z"/>
    <path class="fil298" d="m61811 78243l52311 4978c-143 46-292 92-440 138l-51871-5116z"/>
    <path class="fil299" d="m61811 78243l51957 5089c-148 46-295 93-447 138l-51510-5227z"/>
    <path class="fil300" d="m61811 78243l51600 5201c-152 46-308 92-464 137l-51136-5338z"/>
    <path class="fil301" d="m61811 78243l51227 5311c-155 46-311 92-471 138l-50756-5449z"/>
    <path class="fil302" d="m61811 78243l50850 5422c-155 45-315 89-474 134l-50376-5556z"/>
    <path class="fil303" d="m61811 78243l50471 5529c-164 46-328 92-496 137l-49975-5666z"/>
    <path class="fil304" d="m61811 78243l50075 5639c-163 45-330 89-497 133l-49578-5772z"/>
    <path class="fil305" d="m61811 78243l49676 5746c-166 44-334 88-505 132l-49171-5878z"/>
    <path class="fil306" d="m61811 78243l49275 5852c-172 44-347 88-522 132l-48753-5984z"/>
    <path class="fil307" d="m61811 78243l48858 5957c-175 44-351 88-530 132l-48328-6089z"/>
    <path class="fil308" d="m61811 78243l48434 6063c-174 43-352 85-530 128l-47904-6191z"/>
    <path class="fil258" d="m61811 78243l48014 6164c-183 44-368 88-556 131l-47458-6295z"/>
    <path class="fil259" d="m61811 78243l47572 6269c-183 43-369 85-555 127l-47017-6396z"/>
    <path class="fil260" d="m61811 78243l47131 6370c-187 42-375 85-566 126l-46565-6496z"/>
    <path class="fil261" d="m61811 78243l46683 6471c-191 42-385 84-579 126l-46104-6597z"/>
    <path class="fil262" d="m61811 78243l46223 6571c-190 41-381 82-574 122l-45649-6693z"/>
    <path class="fil309" d="m61811 78243l45757 6671c-194 41-390 81-588 121l-45169-6792z"/>
    <path class="fil264" d="m61811 78243l45292 6767c-198 41-398 81-600 121l-44692-6888z"/>
    <path class="fil265" d="m61811 78243l44821 6863c-203 41-407 81-613 121l-44208-6984z"/>
    <path class="fil266" d="m61811 78243l44336 6959c-205 40-412 80-621 119l-43715-7078z"/>
    <path class="fil267" d="m61811 78243l43846 7054c-205 39-412 78-621 117l-43225-7171z"/>
    <path class="fil268" d="m61811 78243l43344 7148c-209 39-420 78-633 116l-42711-7264z"/>
    <path class="fil269" d="m61811 78243l42833 7242c-208 38-418 76-629 113l-42204-7355z"/>
    <path class="fil270" d="m61811 78243l42326 7333c-211 38-424 75-639 112l-41687-7445z"/>
    <path class="fil271" d="m61811 78243l41812 7423c-215 38-431 75-650 112l-41162-7535z"/>
    <path class="fil272" d="m61811 78243l41287 7513c-220 37-442 74-665 111l-40622-7624z"/>
    <path class="fil273" d="m61811 78243l40753 7602c-219 36-437 72-659 108l-40094-7710z"/>
    <path class="fil274" d="m61811 78243l40225 7688c-222 36-446 71-671 106l-39554-7794z"/>
    <path class="fil275" d="m61811 78243l39688 7773c-227 36-453 72-683 106l-39005-7879z"/>
    <path class="fil276" d="m61811 78243l39142 7858c-230 36-464 70-698 105l-38444-7963z"/>
    <path class="fil277" d="m61811 78243l38584 7942c-229 35-456 69-688 102l-37896-8044z"/>
    <path class="fil278" d="m61811 78243l38021 8026c-232 34-468 67-704 100l-37317-8126z"/>
    <path class="fil279" d="m61811 78243l37460 8106c-236 34-472 68-711 101l-36749-8207z"/>
    <path class="fil280" d="m61811 78243l36895 8186c-241 33-484 66-728 99l-36167-8285z"/>
    <path class="fil281" d="m61811 78243l36316 8265c-240 32-478 65-720 97l-35596-8362z"/>
    <path class="fil282" d="m61811 78243l35730 8344c-243 31-488 63-733 94l-34997-8438z"/>
    <path class="fil283" d="m61811 78243l35147 8419c-246 31-491 63-740 94l-34407-8513z"/>
    <path class="fil284" d="m61811 78243l34562 8494c-246 30-494 60-743 91l-33819-8585z"/>
    <path class="fil285" d="m61811 78243l33962 8567c-249 31-498 61-750 91l-33212-8658z"/>
    <path class="fil286" d="m61811 78243l33356 8641c-248 29-499 58-749 87l-32607-8728z"/>
    <path class="fil287" d="m61811 78243l32756 8711c-257 29-513 59-773 88l-31983-8799z"/>
    <path class="fil288" d="m61811 78243l32147 8781c-256 29-514 57-773 85l-31374-8866z"/>
    <path class="fil289" d="m61811 78243l31529 8849c-258 28-517 57-778 84l-30751-8933z"/>
    <path class="fil290" d="m61811 78243l30903 8917c-257 28-518 54-778 81l-30125-8998z"/>
    <path class="fil291" d="m61811 78243l30282 8982c-265 28-530 55-798 82l-29484-9064z"/>
    <path class="fil292" d="m61811 78243l29643 9048c-259 26-523 52-785 77l-28858-9125z"/>
    <path class="fil293" d="m61811 78243l29018 9110c-267 26-534 52-804 77l-28214-9187z"/>
    <path class="fil294" d="m61811 78243l28375 9172c-266 26-535 50-804 75l-27571-9247z"/>
    <path class="fil295" d="m61811 78243l27733 9232c-270 25-539 50-811 74l-26922-9306z"/>
    <path class="fil296" d="m61811 78243l27078 9292c-269 24-540 48-811 71l-26267-9363z"/>
    <path class="fil297" d="m61811 78243l26435 9348c-276 24-551 48-829 72l-25606-9420z"/>
    <path class="fil298" d="m61811 78243l25775 9406c-274 23-552 45-829 68l-24946-9474z"/>
    <path class="fil299" d="m61811 78243l25116 9460c-278 22-555 45-835 67l-24281-9527z"/>
    <path class="fil300" d="m61811 78243l24456 9513c-280 23-564 44-846 65l-23610-9578z"/>
    <path class="fil301" d="m61811 78243l23785 9565c-280 21-560 43-842 63l-22943-9628z"/>
    <path class="fil302" d="m61811 78243l23109 9616c-278 21-558 41-838 60l-22271-9676z"/>
    <path class="fil303" d="m61811 78243l22438 9665c-283 20-565 40-850 59l-21588-9724z"/>
    <path class="fil304" d="m61811 78243l21756 9713c-282 19-567 38-851 57l-20905-9770z"/>
    <path class="fil305" d="m61811 78243l21073 9758c-283 19-566 38-852 56l-20221-9814z"/>
    <path class="fil306" d="m61811 78243l20395 9803c-286 19-574 36-862 53l-19533-9856z"/>
    <path class="fil307" d="m61811 78243l19707 9846c-287 17-575 35-864 52l-18843-9898z"/>
    <path class="fil308" d="m61811 78243l19014 9888c-289 17-580 33-870 50l-18144-9938z"/>
    <path class="fil258" d="m61811 78243l18315 9928c-288 16-577 32-868 48l-17447-9976z"/>
    <path class="fil259" d="m61811 78243l17625 9967c-291 16-585 31-877 46l-16748-10013z"/>
    <path class="fil260" d="m61811 78243l16925 10003c-292 15-583 30-876 45l-16049-10048z"/>
    <path class="fil261" d="m61811 78243l16224 10040c-294 14-589 28-885 42l-15339-10082z"/>
    <path class="fil262" d="m61811 78243l15522 10073c-295 14-590 28-886 41l-14636-10114z"/>
    <path class="fil263" d="m61811 78243l14815 10106c-296 13-593 26-891 38l-13924-10144z"/>
    <path class="fil264" d="m61811 78243l14108 10136c-296 13-592 26-890 37l-13218-10173z"/>
    <path class="fil265" d="m61811 78243l13392 10167c-295 12-591 22-887 34l-12505-10201z"/>
    <path class="fil266" d="m61811 78243l12683 10194c-298 11-595 22-894 33l-11789-10227z"/>
    <path class="fil267" d="m61811 78243l11968 10221c-297 10-597 20-896 30l-11072-10251z"/>
    <path class="fil268" d="m61811 78243l11251 10245c-299 10-597 20-897 29l-10354-10274z"/>
    <path class="fil310" d="m61811 78243l10534 10269c-299 9-600 18-901 26l-9633-10295z"/>
    <path class="fil270" d="m61811 78243l9813 10290c-300 9-599 17-901 25l-8912-10315z"/>
    <path class="fil271" d="m61811 78243l9093 10311c-300 8-602 15-904 22l-8189-10333z"/>
    <path class="fil272" d="m61811 78243l8370 10329c-301 7-602 15-905 21l-7465-10350z"/>
    <path class="fil273" d="m61811 78243l7646 10346c-301 7-605 13-907 19l-6739-10365z"/>
    <path class="fil274" d="m61811 78243l6920 10361c-301 6-602 13-904 18l-6016-10379z"/>
    <path class="fil275" d="m61811 78243l6194 10376c-301 5-604 10-906 14l-5288-10390z"/>
    <path class="fil276" d="m61811 78243l5469 10388c-303 4-607 10-911 14l-4558-10402z"/>
    <path class="fil277" d="m61811 78243l4739 10399c-301 4-603 7-905 11l-3834-10410z"/>
    <path class="fil278" d="m61811 78243l4013 10408c-304 3-606 7-911 10l-3102-10418z"/>
    <path class="fil279" d="m61811 78243l3283 10416c-303 3-607 5-911 7l-2372-10423z"/>
    <path class="fil280" d="m61811 78243l2556 10422c-304 2-609 4-915 6l-1641-10428z"/>
    <path class="fil281" d="m61811 78243l1827 10426c-305 2-611 3-916 4l-911-10430z"/>
    <path class="fil282" d="m61811 78243l1096 10429c-303 1-607 2-911 2l-185-10431z"/>
    <path class="fil283" d="m61811 78243l365 10431c-122 0-243 1-365 1-182 0-363-1-545-1l545-10431z"/>
    <path class="fil284" d="m61811 78243l-365 10431c-304 0-608-1-911-2l1276-10429z"/>
    <path class="fil285" d="m61811 78243l-1096 10429c-304-1-607-2-911-4l2007-10425z"/>
    <path class="fil286" d="m61811 78243l-1827 10426c-304-1-607-3-910-6l2737-10420z"/>
    <path class="fil311" d="m61811 78243l-2551 10422c-306-3-612-5-917-8l3468-10414z"/>
    <path class="fil288" d="m61811 78243l-3283 10416c-304-3-606-7-909-10l4192-10406z"/>
    <path class="fil289" d="m61811 78243l-4013 10408c-303-4-607-8-910-12l4923-10396z"/>
    <path class="fil312" d="m61811 78243l-4739 10399c-303-4-606-9-908-14l5647-10385z"/>
    <path class="fil291" d="m61811 78243l-5469 10388c-302-5-605-10-906-16l6375-10372z"/>
    <path class="fil292" d="m61811 78243l-6194 10376c-303-6-605-12-907-18l7101-10358z"/>
    <path class="fil293" d="m61811 78243l-6920 10361c-303-6-605-12-907-19l7827-10342z"/>
    <path class="fil294" d="m61811 78243l-7646 10346c-302-6-603-14-904-22l8550-10324z"/>
    <path class="fil295" d="m61811 78243l-8370 10329c-301-8-603-15-903-23l9273-10306z"/>
    <path class="fil296" d="m61811 78243l-9093 10311c-301-8-600-17-900-26l9993-10285z"/>
    <path class="fil297" d="m61811 78243l-9813 10290c-301-9-601-18-900-27l10713-10263z"/>
    <path class="fil298" d="m61811 78243l-10534 10269c-298-9-594-20-891-30l11425-10239z"/>
    <path class="fil299" d="m61811 78243l-11251 10245c-299-10-598-20-896-31l12147-10214z"/>
    <path class="fil300" d="m61811 78243l-11968 10221c-297-11-592-22-887-34l12855-10187z"/>
    <path class="fil301" d="m61811 78243l-12683 10194c-295-12-591-23-886-35l13569-10159z"/>
    <path class="fil302" d="m61811 78243l-13391 10167c-298-12-593-25-889-38l14280-10129z"/>
    <path class="fil303" d="m61811 78243l-14103 10136c-296-12-593-25-888-38l14991-10098z"/>
    <path class="fil304" d="m61811 78243l-14815 10106c-294-13-585-27-878-41l15693-10065z"/>
    <path class="fil305" d="m61811 78243l-15517 10073c-295-14-591-28-884-42l16401-10031z"/>
    <path class="fil306" d="m61811 78243l-16219 10040c-296-15-589-31-883-46l17102-9994z"/>
    <path class="fil307" d="m61811 78243l-16925 10003c-292-15-585-30-876-46l17801-9957z"/>
    <path class="fil308" d="m61811 78243l-17625 9967c-290-16-577-33-866-49l18491-9918z"/>
    <path class="fil258" d="m61811 78243l-18315 9928c-292-17-584-33-874-50l19189-9878z"/>
    <path class="fil259" d="m61811 78243l-19014 9888c-289-17-576-35-863-53l19877-9835z"/>
    <path class="fil313" d="m61811 78243l-19707 9846c-286-18-573-35-857-54l20564-9792z"/>
    <path class="fil261" d="m61811 78243l-20391 9804c-285-19-567-38-851-57l21242-9747z"/>
    <path class="fil262" d="m61811 78243l-21073 9758c-286-19-571-37-855-57l21928-9701z"/>
    <path class="fil263" d="m61811 78243l-21756 9713c-283-20-563-40-843-60l22599-9653z"/>
    <path class="fil264" d="m61811 78243l-22433 9665c-284-21-569-41-852-62l23285-9603z"/>
    <path class="fil265" d="m61811 78243l-23109 9616c-280-20-558-42-836-63l23945-9553z"/>
    <path class="fil266" d="m61811 78243l-23785 9565c-277-21-555-43-830-64l24615-9501z"/>
    <path class="fil267" d="m61811 78243l-24456 9513c-274-21-546-44-818-66l25274-9447z"/>
    <path class="fil268" d="m61811 78243l-25116 9460c-276-23-553-46-827-69l25943-9391z"/>
    <path class="fil269" d="m61811 78243l-25775 9406c-274-23-544-47-815-71l26590-9335z"/>
    <path class="fil270" d="m61811 78243l-26435 9348c-270-23-540-47-808-71l27243-9277z"/>
    <path class="fil271" d="m61811 78243l-27077 9292c-272-24-540-49-809-74l27886-9218z"/>
    <path class="fil272" d="m61811 78243l-27733 9232c-268-25-536-50-802-75l28535-9157z"/>
    <path class="fil273" d="m61811 78243l-28375 9172c-265-25-527-51-790-77l29165-9095z"/>
    <path class="fil274" d="m61811 78243l-29018 9110c-262-26-523-52-783-78l29801-9032z"/>
    <path class="fil275" d="m61811 78243l-29643 9048c-266-27-529-54-793-82l30436-8966z"/>
    <path class="fil276" d="m61811 78243l-30282 8982c-260-27-519-54-776-82l31058-8900z"/>
    <path class="fil277" d="m61811 78243l-30903 8917c-261-28-519-56-778-85l31681-8832z"/>
    <path class="fil278" d="m61811 78243l-31526 8849c-257-28-515-56-770-85l32296-8764z"/>
    <path class="fil279" d="m61811 78243l-32147 8781c-253-29-503-58-754-87l32901-8694z"/>
    <path class="fil280" d="m61811 78243l-32752 8711c-256-30-511-59-764-90l33516-8621z"/>
    <path class="fil281" d="m61811 78243l-33356 8641c-251-30-500-60-748-91l34104-8550z"/>
    <path class="fil282" d="m61811 78243l-33962 8567c-248-30-495-60-740-91l34702-8476z"/>
    <path class="fil283" d="m61811 78243l-34562 8494c-248-31-494-63-740-95l35302-8399z"/>
    <path class="fil314" d="m61811 78243l-35147 8419c-246-32-491-64-735-96l35882-8323z"/>
    <path class="fil285" d="m61811 78243l-35730 8344c-246-33-491-66-734-99l36464-8245z"/>
    <path class="fil286" d="m61811 78243l-36315 8265c-244-33-486-66-726-100l37041-8165z"/>
    <path class="fil287" d="m61811 78243l-36895 8186c-238-33-475-67-711-100l37606-8086z"/>
    <path class="fil288" d="m61811 78243l-37460 8106c-235-33-469-67-701-101l38161-8005z"/>
    <path class="fil289" d="m61811 78243l-38021 8026c-237-35-472-70-706-105l38727-7921z"/>
    <path class="fil290" d="m61811 78243l-38584 7942c-233-34-465-70-695-105l39279-7837z"/>
    <path class="fil291" d="m61811 78243l-39142 7858c-229-35-457-70-683-106l39825-7752z"/>
    <path class="fil292" d="m61811 78243l-39688 7773c-225-35-449-71-671-107l40359-7666z"/>
    <path class="fil315" d="m61811 78243l-40225 7688c-227-36-453-73-677-110l40902-7578z"/>
    <path class="fil294" d="m61811 78243l-40753 7602c-222-37-443-74-663-111l41416-7491z"/>
    <path class="fil295" d="m61811 78243l-41287 7513c-220-37-438-74-654-112l41941-7401z"/>
    <path class="fil296" d="m61811 78243l-41812 7423c-215-37-428-74-639-112l42451-7311z"/>
    <path class="fil297" d="m61811 78243l-42326 7333c-216-38-432-77-645-115l42971-7218z"/>
    <path class="fil298" d="m61811 78243l-42833 7242c-212-38-422-77-630-116l43463-7126z"/>
    <path class="fil299" d="m61811 78243l-43344 7148c-208-38-415-77-619-116l43963-7032z"/>
    <path class="fil300" d="m61811 78243l-43846 7054c-203-39-404-78-604-118l44450-6936z"/>
    <path class="fil301" d="m61811 78243l-44336 6959c-200-39-400-78-596-118l44932-6841z"/>
    <path class="fil302" d="m61811 78243l-44821 6863c-200-40-398-81-594-122l45415-6741z"/>
    <path class="fil303" d="m61811 78243l-45292 6767c-197-41-395-81-588-122l45880-6645z"/>
    <path class="fil304" d="m61811 78243l-45755 6671c-198-42-393-84-588-126l46343-6545z"/>
    <path class="fil305" d="m61811 78243l-46223 6571c-194-42-389-84-579-126l46802-6445z"/>
    <path class="fil306" d="m61811 78243l-46683 6471c-189-42-375-85-561-127l47244-6344z"/>
    <path class="fil307" d="m61811 78243l-47130 6370c-186-42-373-84-554-127l47684-6243z"/>
    <path class="fil308" d="m61811 78243l-47570 6269c-187-43-370-87-553-131l48123-6138z"/>
    <path class="fil258" d="m61811 78243l-48014 6164c-178-42-356-85-530-128l48544-6036z"/>
    <path class="fil259" d="m61811 78243l-48434 6063c-179-44-354-88-529-132l48963-5931z"/>
    <path class="fil260" d="m61811 78243l-48858 5957c-174-44-349-87-519-132l49377-5825z"/>
    <path class="fil261" d="m61811 78243l-49275 5852c-170-44-335-89-501-133l49776-5719z"/>
    <path class="fil262" d="m61811 78243l-49676 5746c-166-45-334-89-496-133l50172-5613z"/>
    <path class="fil263" d="m61811 78243l-50075 5639c-167-45-329-91-492-137l50567-5502z"/>
    <path class="fil264" d="m61811 78243l-50471 5529c-163-46-326-91-485-137l50956-5392z"/>
    <path class="fil265" d="m61811 78243l-50850 5422c-159-45-312-91-467-137l51317-5285z"/>
    <path class="fil266" d="m61811 78243l-51227 5311c-155-45-309-91-460-137l51687-5174z"/>
    <path class="fil267" d="m61811 78243l-51600 5201c-150-46-296-92-443-139l52043-5062z"/>
    <path class="fil268" d="m61811 78243l-51957 5089c-151-47-302-94-448-142l52405-4947z"/>
    <path class="fil269" d="m61811 78243l-52310 4978c-147-47-289-95-432-143l52742-4835z"/>
    <path class="fil270" d="m61811 78243l-52660 4862c-139-46-278-92-413-138l53073-4724z"/>
    <path class="fil271" d="m61811 78243l-52996 4751c-138-48-271-95-406-143l53402-4608z"/>
    <path class="fil272" d="m61811 78243l-53326 4635c-134-48-269-96-400-144l53726-4491z"/>
    <path class="fil273" d="m61811 78243l-53641 4523c-135-49-264-98-395-148l54036-4375z"/>
    <path class="fil274" d="m61811 78243l-53952 4406c-131-49-261-98-387-147l54339-4259z"/>
    <path class="fil275" d="m61811 78243l-54261 4290c-126-49-248-99-370-148l54631-4142z"/>
    <path class="fil276" d="m61811 78243l-54553 4173c-122-49-245-98-363-148l54916-4025z"/>
    <path class="fil277" d="m61811 78243l-54842 4057c-118-49-231-99-346-149l55188-3908z"/>
    <path class="fil278" d="m61811 78243l-55125 3935c-115-49-229-98-339-148l55464-3787z"/>
    <path class="fil279" d="m61811 78243l-55395 3819c-111-50-216-99-323-149l55718-3670z"/>
    <path class="fil280" d="m61811 78243l-55659 3697c-107-49-213-99-316-148l55975-3549z"/>
    <path class="fil281" d="m61811 78243l-55911 3580c-106-51-207-102-309-153l56220-3427z"/>
    <path class="fil282" d="m61811 78243l-56156 3458c-102-51-203-102-301-153l56457-3305z"/>
    <path class="fil283" d="m61811 78243l-56398 3337c-98-51-191-102-285-154l56683-3183z"/>
    <path class="fil314" d="m61811 78243l-56624 3215c-94-51-188-102-277-153l56901-3062z"/>
    <path class="fil285" d="m61811 78243l-56848 3093c-90-51-175-102-261-153l57109-2940z"/>
    <path class="fil286" d="m61811 78243l-57055 2971c-86-51-172-102-254-153l57309-2818z"/>
    <path class="fil287" d="m61811 78243l-57260 2850c-85-53-164-106-245-159l57505-2691z"/>
    <path class="fil288" d="m61811 78243l-57456 2722c-79-51-157-102-231-153l57687-2569z"/>
    <path class="fil289" d="m61811 78243l-57643 2601c-74-51-144-103-214-154l57857-2447z"/>
    <path class="fil290" d="m61811 78243l-57820 2473c-71-51-141-102-208-153l58028-2320z"/>
    <path class="fil291" d="m61811 78243l-57988 2352c-70-53-133-106-198-159l58186-2193z"/>
    <path class="fil292" d="m61811 78243l-58146 2224c-64-51-127-102-186-153l58332-2071z"/>
    <path class="fil293" d="m61811 78243l-58297 2103c-62-53-117-106-174-159l58471-1944z"/>
    <path class="fil294" d="m61811 78243l-58436 1975c-58-52-116-105-169-158l58605-1817z"/>
    <path class="fil295" d="m61811 78243l-58575 1848c-54-52-101-106-150-159l58725-1689z"/>
    <path class="fil296" d="m61811 78243l-58695 1721c-49-51-98-102-142-153l58837-1568z"/>
    <path class="fil297" d="m61811 78243l-58810 1599c-47-52-87-106-129-159l58939-1440z"/>
    <path class="fil298" d="m61811 78243l-58913 1472c-43-53-86-106-125-159l59038-1313z"/>
    <path class="fil299" d="m61811 78243l-59015 1345c-38-53-71-106-105-159l59120-1186z"/>
    <path class="fil300" d="m61811 78243l-59100 1218c-35-53-71-106-102-159l59202-1059z"/>
    <path class="fil301" d="m61811 78243l-59182 1091c-32-53-58-106-84-159l59266-932z"/>
    <path class="fil302" d="m61811 78243l-59250 964c-29-55-59-109-83-164l59333-800z"/>
    <path class="fil303" d="m61811 78243l-59317 831c-24-52-42-105-62-158l59379-673z"/>
    <path class="fil304" d="m61811 78243l-59367 704c-20-53-42-105-58-159l59425-545z"/>
    <path class="fil305" d="m61811 78243l-59413 577c-17-53-28-106-40-159l59453-418z"/>
    <path class="fil306" d="m61811 78243l-59446 450c-13-53-26-106-35-159l59481-291z"/>
    <path class="fil307" d="m61811 78243l-59474 323c-9-53-14-106-19-159l59493-164z"/>
    <path class="fil308" d="m61811 78243l-59491 196c-5-53-9-106-11-159l59502-37z"/>
    <path class="fil308" d="m61811 78243l-59500 69c-1-23-5-46-5-69 0-21 4-42 5-64l59500 64z"/>
    <path class="fil257 str0" d="m61811 67819c32860 0 59505 4665 59505 10424 0 5766-26645 10432-59505 10432s-59505-4666-59505-10432c0-5759 26645-10424 59505-10424z"/>
   <path class="fil308 str1" d="m82944 1.4017e5c1064 6935 2838 8837-3767 12589-8170 4643-24600 7511-33137 2943-4845-2599-7316-6163-6103-11128 3669-15008 7099-44842 7017-59812-8-1640-532-4411-412-5594 0-1236 6979-2801 15689-2801 8701 0 15838 1565 15838 2801 38 771-127 2748-135 3879-37 3759-179 8013-239 12221-217 15584 2898 29521 5249 44903v-1z"/>
</svg>